<?xml version="1.0" encoding="utf-8"?>
<!-- Generator: Adobe Illustrator 28.2.0, SVG Export Plug-In . SVG Version: 6.00 Build 0)  -->
<svg version="1.1" id="Layer_1" xmlns="http://www.w3.org/2000/svg" xmlns:xlink="http://www.w3.org/1999/xlink" x="0px" y="0px"
	 viewBox="0 0 550 224" style="enable-background:new 0 0 550 224;" xml:space="preserve">
<style type="text/css">
	.st0{fill:#B72226;}
	.st1{fill:#B02125;}
	.st2{fill:#AB2125;}
	.st3{fill:#A52124;}
	.st4{fill:#591214;}
	.st5{fill:#AA2024;}
	.st6{fill:#8F1C1E;}
	.st7{fill:#981F21;}
	.st8{fill:#A82024;}
	.st9{fill:#951E20;}
	.st10{fill:#6D1516;}
	.st11{fill:#6B1515;}
	.st12{fill:#9C2122;}
	.st13{fill:#9C2021;}
	.st14{fill:#831C1C;}
	.st15{fill:#7A1919;}
	.st16{fill:#9E2022;}
	.st17{fill:#8C1D1E;}
	.st18{fill:#7F1A1B;}
	.st19{fill:#811A1C;}
	.st20{fill:#8F1D1E;}
	.st21{fill:#711617;}
	.st22{fill:#9F2123;}
	.st23{fill:#701617;}
	.st24{fill:#A42025;}
	.st25{fill:#812220;}
	.st26{fill:#C74F4E;}
	.st27{fill:#C95858;}
	.st28{fill:#BF3E3D;}
	.st29{fill:#C85151;}
	.st30{fill:#C4504E;}
	.st31{fill:#CA5857;}
	.st32{fill:#B8595D;}
	.st33{fill:#A75051;}
	.st34{fill:#C65C5D;}
	.st35{fill:#C84E51;}
	.st36{fill:#B4262A;}
	.st37{fill:#BA4040;}
	.st38{fill:#C55A5A;}
	.st39{fill:#BD5859;}
	.st40{fill:#AB2F34;}
	.st41{fill:#BA5352;}
	.st42{fill:#C5585B;}
	.st43{fill:#C35757;}
	.st44{fill:#C05453;}
	.st45{fill:#B12B2A;}
	.st46{fill:#C75557;}
	.st47{fill:#FFFFFF;}
	.st48{fill:#2B489E;}
	.st49{fill:#FDFDFD;}
	.st50{fill:#FEFEFE;}
	.st51{fill:#FCFCFD;}
	.st52{fill:#F8F7F7;}
	.st53{fill:#2D489C;}
	.st54{fill:#2A327E;}
	.st55{fill:#C8C8C9;}
	.st56{fill:#8794C7;}
	.st57{fill:#E4E3E4;}
	.st58{fill:#2B3180;}
	.st59{fill:#D6D3D6;}
	.st60{fill:#262B69;}
	.st61{fill:#293D89;}
	.st62{fill:#D3D2D2;}
	.st63{fill:#2B2E7B;}
	.st64{fill:#E3E2E3;}
	.st65{fill:#D5D5D8;}
	.st66{fill:#1C204F;}
	.st67{fill:#2A4292;}
	.st68{fill:#252A67;}
	.st69{fill:#2B3182;}
	.st70{fill:#13173F;}
	.st71{fill:#ABAAAA;}
	.st72{fill:#DEDEDE;}
	.st73{fill:#272B6F;}
	.st74{fill:#B2B1B1;}
	.st75{fill:#E4E3E2;}
	.st76{fill:#0B0F1E;}
	.st77{fill:#253171;}
	.st78{fill:#999999;}
	.st79{fill:#171C48;}
	.st80{fill:#5F5F61;}
	.st81{fill:#3E413F;}
	.st82{fill:#D9DBDE;}
	.st83{fill:#CAC8C8;}
	.st84{fill:#D2D1D0;}
	.st85{fill:#212860;}
	.st86{fill:#C6C3C6;}
	.st87{fill:#D2D0D1;}
	.st88{fill:#2E2F2F;}
	.st89{fill:#C0BDC0;}
	.st90{fill:#BCB9BB;}
	.st91{fill:#1C2254;}
	.st92{fill:#B3B2B3;}
	.st93{fill:#C6C3C5;}
	.st94{fill:#1F2459;}
	.st95{fill:#8A8788;}
	.st96{fill:#B8B7B9;}
	.st97{fill:#C6C6CB;}
	.st98{fill:#1F265B;}
	.st99{fill:#AEADAD;}
	.st100{fill:#CECED3;}
	.st101{fill:#273274;}
	.st102{fill:#878686;}
	.st103{fill:#262F6E;}
	.st104{fill:#474648;}
	.st105{fill:#BABAC1;}
	.st106{fill:#A0A2B0;}
	.st107{fill:#ACB0B9;}
	.st108{fill:#C4C3C4;}
	.st109{fill:#767575;}
	.st110{fill:#969696;}
	.st111{fill:#273270;}
	.st112{fill:#8C8B8B;}
	.st113{fill:#A4A4A4;}
	.st114{fill:#404141;}
	.st115{fill:#919191;}
	.st116{fill:#ACA9AC;}
	.st117{fill:#2C489E;}
	.st118{fill:#1F212B;}
	.st119{fill:#D0D2D3;}
	.st120{fill:#323333;}
	.st121{fill:#ABA8AE;}
	.st122{fill:#3B3C45;}
	.st123{fill:#3A3A40;}
	.st124{fill:#BDBCBC;}
	.st125{fill:#666466;}
	.st126{fill:#3D3C3E;}
	.st127{fill:#3E3C42;}
	.st128{fill:#373738;}
	.st129{fill:#CDCACD;}
	.st130{fill:#4B4B48;}
	.st131{fill:#464854;}
	.st132{fill:#363636;}
	.st133{fill:#A4A4A6;}
	.st134{fill:#383941;}
	.st135{fill:#3C3D40;}
	.st136{fill:#383D5C;}
	.st137{fill:#D9D7D9;}
	.st138{fill:#4B4A4D;}
	.st139{fill:#454345;}
	.st140{fill:#C4C3C3;}
	.st141{fill:#828081;}
	.st142{fill:#2B2C2D;}
	.st143{fill:#38393A;}
	.st144{fill:#89878A;}
	.st145{fill:#464748;}
	.st146{fill:#363737;}
	.st147{fill:#656366;}
	.st148{fill:#777771;}
	.st149{fill:#8A8789;}
	.st150{fill:#ADACAE;}
	.st151{fill:#182045;}
	.st152{fill:#42509D;}
	.st153{fill:#3C3D3D;}
	.st154{fill:#A9A6A3;}
	.st155{fill:#504F51;}
	.st156{fill:#0B0D23;}
	.st157{fill:#090A1E;}
	.st158{fill:#0B0D25;}
	.st159{fill:#252C6C;}
	.st160{fill:#262E6E;}
	.st161{fill:#252E6D;}
	.st162{fill:#0C1123;}
	.st163{fill:#181B48;}
	.st164{fill:#21265C;}
	.st165{fill:#1C2255;}
	.st166{fill:#242E6D;}
	.st167{fill:#1E2659;}
	.st168{fill:#131745;}
	.st169{fill:#0A0E1F;}
	.st170{fill:#1F255A;}
	.st171{fill:#232D6A;}
	.st172{fill:#181E4C;}
	.st173{fill:#222B64;}
	.st174{fill:#292F78;}
	.st175{fill:#1C1F4A;}
	.st176{fill:#12143A;}
	.st177{fill:#222964;}
	.st178{fill:#191F4C;}
	.st179{fill:#222A65;}
	.st180{fill:#252B6A;}
	.st181{fill:#141B45;}
	.st182{fill:#191D4C;}
	.st183{fill:#20265F;}
	.st184{fill:#1E2559;}
	.st185{fill:#212760;}
	.st186{fill:#232849;}
	.st187{fill:#222C66;}
	.st188{fill:#393A39;}
	.st189{fill:#757473;}
	.st190{fill:#484948;}
	.st191{fill:#434343;}
	.st192{fill:#B3B3B3;}
	.st193{fill:#F2F3F7;}
	.st194{fill:#F1F1F5;}
	.st195{fill:#F5F5F7;}
	.st196{fill:#F5F6FA;}
	.st197{fill:#EFF0F3;}
	.st198{fill:#0B0E20;}
	.st199{fill:#D7DADE;}
	.st200{fill:#BAC1D6;}
	.st201{fill:#272C6D;}
	.st202{fill:#1D1F4E;}
	.st203{fill:#252B69;}
	.st204{fill:#272C6C;}
	.st205{fill:#222D68;}
	.st206{fill:#29357E;}
	.st207{fill:#A09D9F;}
</style>
<g>
	<g>
		<path class="st0" d="M536.3,72.57v6.85c-1.44,1.57-3.13,2.02-5.02,1.32c-1.01-0.35-2.02-0.28-3.02-0.06
			c-3.06,0.75-5.82-0.41-8.28-3.3c-1.49-1.77-2.76-2.48-3.94,0.73c-0.73,1.92-1.7,2.69-2.78,2.85c-0.95,0.17-1.96-0.13-2.91-0.5
			c-2.18-0.9-4.33-1.55-6.57-1.55c-0.71,0-1.49-0.07-2.05-0.75c-2.37-2.95-4.63-3.12-7.13-0.17c-1.16,1.36-2.56,0.52-3.68-0.78
			c-1.68-2-3.3-2.05-4.98-0.06c-0.43,0.5-0.86,0.86-1.31,1.06c-1.04,0.56-2.16,0.37-3.3-0.24c-1.29-0.71-2.56-0.86-3.77,0.52
			c-4.83,5.49-10.32,5.37-15.95,4.85h-0.02c-6.42-0.6-12.35-4.74-18.73-5.67c-0.19-0.04-0.35-0.06-0.54-0.07
			c-5.36-0.6-10.71-1.14-16.01,0.65c-2.11,0.73-4.16,0.75-6.19,0.43c-2.37-0.37-4.7-1.23-7.03-2c-1.27-0.41-2.54-0.8-3.83-1.08
			c-0.28-0.06-0.63-0.26-0.8-0.63c-0.45-1.04-0.93-1.83-1.46-2.41H536.3z"/>
		<path class="st1" d="M536.3,78.21v3.23c-2.87,0.04-5.6,1.21-8.23,3.02c-0.09,0.13-0.19,0.28-0.28,0.41
			c-0.06,0.07-0.13,0.17-0.19,0.24c-2.41,3.08-5.64,4.37-7.41,9.01c-1.16,3.02-4.59,2.56-6.01-0.63c-0.32-0.67-0.62-1.16-0.93-1.49
			c-0.86-0.93-1.75-0.63-2.91,0.17c-2.24,1.49-4.5,4.01-6.75-0.34c-0.69-1.34-1.68,0.02-2.39,0.91c-1.88,2.39-3.68,2.43-5.77,0.22
			c-3.13-3.28-6.87-2.3-9.61,2.09c-0.41,0.67-0.8,1.03-1.19,1.16c-0.86,0.32-1.66-0.35-2.46-1.12c-0.02,0-0.02-0.04-0.04-0.04
			c-0.02-0.02-0.02-0.02-0.04-0.02c-0.04-0.06-0.06-0.07-0.07-0.09l-0.02-0.02c-0.07-0.07-0.15-0.13-0.22-0.21
			c-1.18-2.2-2.67-3.27-4.46-3.64c-3.73-0.75-7.39-0.82-11.14,0.49c-1.53,0.52-3.06,0.99-4.59,1.04c-2.31,0.07-4.55-0.78-6.55-3.83
			c-0.84-1.27-2.07-1.12-3.19-1.14c-2.13-0.06-4.25-0.17-6.36,0c-1.85,0.15-3.69,0.22-5.54,0.24c-14.63,0.26-29.2-2.74-43.83-2.31
			c-1.36,0.06-2.72-0.09-4.09-0.41c-1.55-0.35-3.08-0.91-4.59-1.6c-2.15-0.95-4.27-1.57-6.42-0.77v0.02
			c-0.62,0.22-1.23,0.58-1.85,1.06c-1.68,1.34-3.56,1.08-5.3-0.15c-3.96-2.72-8.08-3.83-12.41-3.73c-0.8,0.02-1.62,0.02-2.43,0.02
			c-2.59,0.06-5.19,0.06-7.78,0.06c-4.09,0-8.17-0.02-12.26-0.06c-2.24,0-4.42,0.19-6.4,2.22c-1.1,1.12-2.61,1.7-3.17-0.47
			c-0.19-0.71-0.37-1.25-0.6-1.68c0-0.02-0.02-0.04-0.02-0.06c-1.08-2.09-2.57-1.14-4.11-0.47c-0.76,0.34-1.51,0.69-2.22,1.21
			l-0.02,0.02c-0.02,0-0.02,0-0.04,0.02c-0.06,0.04-0.09,0.04-0.15,0.04c-4.03,1.06-8.08-0.91-12.13-0.11
			c-0.15,0.04-0.19,0.07-0.19,0.13c-0.02-0.02-0.06-0.07-0.09-0.15c-0.63-1.16-1.31-1.79-2.03-2.11c-2.56-1.16-5.58,1.62-8-0.75
			c-0.32-0.32-0.82-0.19-1.18,0.11c-2.99,2.57-5.82,3.06-8.62-0.84c-0.84-1.16-1.96-0.21-2.8,0.67c-0.24,0.26-0.5,0.5-0.75,0.69
			c-2,1.68-4.01,1.62-6.1-0.24c-1.49-1.31-3.1-1.36-4.7-0.8c-1.32,0.45-2.59,0.39-3.84-0.3c-0.07-0.04-0.17-0.07-0.24-0.15
			c-0.02,0-0.06,0-0.07-0.02c-1.7-1.32-3.32-1.81-4.87-1.57c-1.83,0.3-3.56,1.6-5.21,3.75c-3.56,4.65-7.74,3.92-11.85,3.25
			c-2.05-0.32-4.07-1.23-6.12-1.29c-0.75-0.04-1.51,0.04-2.28,0.3c-0.95,0.3-1.75-0.39-2.43-1.47c-0.62-0.97-1.31-1.74-2.02-2.26
			v-0.02c-1.66-1.27-3.49-1.32-5.24-0.15c-3.86,2.59-7.89,1.9-11.85,2.35c-1.77,0.22-3.55,0.22-5.34,0.17
			c-0.84-0.04-1.68-0.09-2.54-0.15c-2.02-0.17-3.43,0.62-4.37,3.75c-0.56,1.92-1.38,3.28-2.48,3.47c-0.62,0.13-1.32-0.15-2.13-0.9
			c-0.09-0.49-0.21-0.97-0.32-1.4v-0.02c-0.11-0.5-0.24-0.93-0.39-1.38c-1.14-3.55-2.93-5.84-5.65-6.27
			c-0.32-0.04-0.63-0.07-0.97-0.07c-0.04,0.04-0.06,0.06-0.07,0.09v0.02h-0.02c-1.59,1.64-3.19,2.61-4.83,3.02
			c-0.02,0-0.02,0-0.02,0c-0.6,0.17-1.19,0.24-1.79,0.26c-0.02,0-0.02,0-0.04,0c-1.74,0.04-3.55-0.49-5.41-1.44
			c-0.24-0.11-0.49-0.24-0.73-0.34c-2.35-1.06-4.85-1.62-7.15-3.06c-0.28-0.15-0.54-0.34-0.8-0.52c-1.74-1.27-3.04-1.12-4.35,1.04
			c-1.72,2.85-3.51,2.78-5.26,0.06c-1.42-2.18-2.74-2.03-4.25-0.11c-2.59,3.32-5.45,3.62-8.38,2.37v-5.91h255.57
			c1.03,3.08,3.17,2.56,5.09,2.8c0.49,0.07,0.95,0.19,1.38,0.41c1.9,1.01,3.83,1.46,5.73,1.59c6.27,0.41,12.56-2.76,18.85-1.59
			c1.29,0.24,2.61,0.37,3.94,0.52c2.54,0.26,5.08,0.58,7.35,1.94c3.73,2.22,7.5,3.34,11.29,3.77c1.74,0.19,3.45,0.22,5.19,0.15
			c3.58-0.17,7.69,0.09,10.49-5.36c1.04-1.98,2.85-1.36,4.24-0.19c1.18,1.01,2.16,1.21,3.13,0.45c0.41-0.32,0.78-0.78,1.19-1.44
			c1.68-2.69,3.6-2.61,5.28,0.19c1.55,2.52,2.87,2.3,4.37-0.13c1.59-2.54,3.45-2.8,5.08-0.24c1.19,1.88,2.54,2.74,4.09,2.2
			c2.84-1.03,5.17,2.16,7.91,2c0.24-0.02,0.49-0.04,0.71-0.06c1.21-0.21,2.09-0.84,2.44-3.17c0.65-4.24,2.65-3.15,3.86-1.36
			c2.85,4.24,5.99,5.47,9.7,3.94c0.39-0.15,0.97-0.52,1.16-0.26C532.59,81.62,534.42,79.35,536.3,78.21z"/>
		<path class="st2" d="M482.34,94.78c-0.06,0.11-0.11,0.21-0.17,0.32c-0.04,0.06-0.07,0.13-0.11,0.19
			c-0.02,0.02-0.06,0.04-0.07,0.06c-0.86,0.69-1.74,1.36-2.57,2.09c-0.47,0.39-0.91,0.8-1.36,1.25c-0.82,0.82-1.62,1.74-2.35,2.8
			c-0.6,0.86-1.01,1.72-0.97,2.69c0,0-0.02,0.02,0,0.04c0,0.24,0.04,0.5,0.09,0.78V105c0.09,0.28,0.21,0.58,0.37,0.9
			c0.24,3.32-0.99,4.59-2.74,3.73c-4.96-2.43-10.06-0.95-15.08-1.46c-2.56-0.26-4.57-1.25-6.59-3.25c-2.54-2.89-5.19-5.39-8.49-5.28
			c-3.32,0.11-5.95,2.35-7.95,6.44c-0.47,0.35-0.8,0.93-1.1,1.59c-2.57,5.6-2.57,5.6-6.61,3.4c-2.74-1.51-5.62-0.5-8.42-0.95
			c-1.66-0.26-1.1,3.25-2.46,3.47c-0.07-2.18-0.06-4.4-0.26-6.57c-0.28-3.25-1.12-5.92-2.39-7.87c-1.96-3.08-4.94-4.38-8.34-3.3
			c-0.43,0.26-0.82,0.6-1.16,1.01c-0.77,0.9-1.32,2.11-1.68,3.6c-0.52,2.22-1.59,3.43-3.04,2.84c-3.97-1.66-8-0.82-11.98-0.47
			c-1.25,0.11-2.41,0-3.53-0.34c-2.78-0.82-5.17-2.93-7.37-6.06c-0.73-1.03-1.47-2.05-2.31-2.78c-0.28-0.24-0.58-0.47-0.9-0.63
			c-3.96-4.37-8.23-6.51-13.08-4.83c-1.55,1.12-2.93,2.71-4.4,4.05c-1.38,1.25-2.74,1.96-4.29,1.4c-2.07-0.75-3.9,0.22-5.84,1.34
			c-1.08,0.63-1.94,1.38-2.48,2.41c-0.69,1.25-0.95,2.91-0.63,5.28c0.24,1.87-0.02,3.99-1.38,4.74c-0.13,0.07-0.22,0.11-0.34,0.15
			h-0.02c-0.45,0.17-0.84,0.13-1.18-0.11c-0.02,0-0.04-0.02-0.06-0.02c-0.52-0.37-0.91-1.21-1.12-2.46
			c0.07-0.41,0.13-0.82,0.19-1.23v-0.02c0.07-0.45,0.11-0.88,0.17-1.32c0-0.02,0-0.02,0-0.04c0.22-2.48,0.15-4.91-0.37-7.2h-0.02
			c-0.15-0.76-0.37-1.53-0.67-2.28c-0.09-0.28-0.21-0.54-0.34-0.82c-0.06-0.15-0.13-0.32-0.21-0.47c-1.94-5.5-3.04-6.94-5.82-6.55
			c0,0,0-0.02-0.02,0c-0.17,0-0.34,0.04-0.52,0.09c-0.13,0-0.26,0.04-0.41,0.07c-0.06,0-0.13,0.02-0.19,0.04
			c-0.54,0.06-1.01-0.24-1.47-0.49c-0.07-0.04-0.15-0.07-0.22-0.11l-0.02-0.02c-1.64-2.33-4.01-1.92-5.78-3.75
			c-0.09-0.11-0.21-0.22-0.3-0.34c1.62-3.21,4.12-2.89,6.31-3.58c0.04-0.02,0.09-0.02,0.13-0.04c0.8-0.17,2.39,0.24,1.53,2.99
			c-0.32,1.03-0.43,1.75,0.32,2.26c0.63,0.43,1.25,0.15,1.66-0.6c1.75-3.17,4.09-2.95,6.42-2.93c4.25,0.04,8.53,0.06,12.78,0.06
			c2.67,0,5.37-0.02,8.04-0.06h1.01c5.04-0.04,9.96,0.21,14.52,4.37c1.21,1.1,3.17,1.25,4.35-0.32c0.78-1.06,1.59-1.66,2.39-1.96
			c2.03-0.75,4.09,0.49,5.93,1.4c1.36,0.67,2.74,1.21,4.12,1.57c1.31,0.35,2.59,0.5,3.83,0.43c13.85-0.91,27.56,3.04,41.37,2.18
			c1.38-0.09,2.78-0.13,4.18-0.15c4.07-0.07,8.14,0.09,12.2,0.11c0.97,0,2.11-0.43,2.8,1.12c1.64,3.69,3.66,4.44,5.73,4.18
			c1.57-0.21,3.19-0.99,4.68-1.53c4.78-1.72,9.37-0.73,14.03,0.41C481.78,90.78,481.74,93.21,482.34,94.78z"/>
		<path class="st3" d="M271.85,77.16c0,0.04-0.02,0.07-0.04,0.11c-0.07,0.17-0.15,0.26-0.21,0.26c-1.66-1.16-3.4-1.55-5-1.23
			c-3.4,0.63-6.23,4.44-6.66,11.01c-0.17,2.61-0.71,4.83-1.59,6.61c-1.16,2.37-2.89,3.97-5.11,4.76c-1.75,0.62-3.32,0.5-4.7-0.26
			c-1.74-0.95-3.21-2.89-4.46-5.67c-1.25-2.8-2.43-5.69-3.69-8.47c-0.19-0.41-0.37-0.82-0.56-1.23c-0.88-1.9-1.9-3.28-3-4.2
			c-3.17-2.56-6.96-1.08-9.61,4.22c-1.79,3.62-2.18,7.8-2.93,11.9c-0.09-0.04-0.17-0.09-0.24-0.17c-0.04-0.02-0.07-0.04-0.11-0.07
			c-0.19-0.13-0.34-0.3-0.49-0.49c-0.6-0.3-1.19-0.58-1.81-0.82c-0.02-0.02-0.02-0.02-0.04-0.02c-2.72-1.12-5.5-1.62-8.23-0.93
			c-3.51,0.9-6.51-0.24-9.31-2.72c-0.56-0.49-1.08-1.03-1.62-1.6c-6.31-7.46-12.99-8.92-20.06-2.8c-0.88,0.77-1.64,1.87-2.48,2.8
			c-0.43,0.84-0.88,1.59-1.34,2.22v0.02c-3.13,4.31-6.94,4.4-11.14,2.99c-4.24-1.46-8.56-1.49-12.87-0.32
			c-0.71,0.19-1.46,0.3-2.15,0.09V77.69c1.4,0,2.78-0.02,4.18,0c1.59,0.02,2.84-0.76,3.92-2.8c1.59-2.97,3.3-2.95,4.93,0.24
			c1.4,2.71,2.85,3.32,4.37,0.06c0.82-1.75,1.66-2.61,2.67-2.61c0.73,0,1.53,0.43,2.46,1.31c0.17,0.15,0.34,0.32,0.52,0.45
			c1.96,1.66,4.31,2.56,6.53,3.15c0.26,0.07,0.54,0.13,0.8,0.19c1.96,0.37,3.84,0.41,5.67,2.54c0.11,0.11,0.21,0.22,0.32,0.28
			c0.58,0.47,1.19,0.26,1.79-0.26c0,0,0,0,0.02,0c0.73-0.65,1.42-1.79,1.96-2.65c1.01-1.6,2-1.85,3.23-1.74
			c0.21,0.5,0.43,0.93,0.71,1.32c1.01,1.55,2.39,2.39,3.53,3.68c0.73,0.84,1.51,1.59,2.13,2.59c0.34,0.52,0.62,1.12,0.84,1.83
			c0.93,0.95,1.68,1.16,2.28,0.77c0.69-0.39,1.19-1.57,1.55-3.19c0.73-3.32,1.87-4.52,4.37-4.38c1.01,0.06,2.02,0.07,3.02,0.04
			c3.41-0.04,6.85-0.41,10.19-0.24c4.12,0.22,7.87-4.03,11.96-1.53c0.13,0.07,0.26,0.11,0.41,0.11c0.26,0,0.54-0.06,0.78,0.07
			c1.66,0.95,3.84,1.81,6.18,2.54c4.25,1.32,9.01,2.16,12,2.11c3.28-0.07,5.39-3.94,8.19-5.56c0.95-0.54,1.88-0.93,2.8-1.08
			c1.68-0.28,3.3,0.21,4.93,1.83C271.77,76.88,271.85,77.03,271.85,77.16z"/>
		<path class="st4" d="M349.88,159.32c1.38,10.32,2.93,20.59,4.08,30.98c0.79,7.13,0.14,14.21-2.27,20.57
			c-2.18,5.74-5.16,9.47-9.79,9.24c-5.8-0.29-9.26-5.99-8.57-14.94c0.92-12.04,1.92-24.08,3.03-36.08
			c0.36-3.88-0.32-7.92,0.82-11.65c1.59,0.02,1.27,2.1,1.39,3.44c0.21,2.36,0.94,3.32,2.43,3.11c0.91-0.13,1.8,0.31,2.7,0.54
			c2.29,0.57,4.27,0.21,5.07-3.95C348.9,159.81,349.25,159.18,349.88,159.32z"/>
		<path class="st5" d="M328.31,84.74c0,0.06,0,0.09-0.02,0.15c-0.07,0.21-0.15,0.3-0.22,0.3c-7-5.43-13.68-4.63-20.23,2.46
			c-1.14,1.23-2.3,2.67-3.43,4.31c-2.76,3.64-6.36,3.68-9.55,5.47c-0.13,0.07-0.26,0.15-0.39,0.22c-0.65,0.39-1.4,0.28-2.05-0.22
			c-0.37-0.26-0.71-0.67-0.99-1.19c-1.7-3.23-3.32-2.95-4.93-1.16c-0.32,0.35-0.63,0.76-0.95,1.23c-1.62,2.31-3.13,2.37-4.53-0.43
			c-1.94-7.63-4.91-13.96-9.4-18.34v-0.8c1.42-0.02,2.78-0.17,4.18-0.65c1.62-0.56,3.36-0.86,4.93,0.99
			c1.9,2.22,3.92,2.24,5.78,0.04c0.09-0.13,0.21-0.26,0.3-0.39c1.79-2.41,3.32-2.39,4.91,0.54c1.79,3.32,3.88,1.92,5.69,0.07
			c1.25-1.29,2.2-1.53,3.58-0.5c1.87,1.38,3.84,1.47,5.77-0.3c0.39-0.35,0.76-0.62,1.1-0.71c0.73-0.22,1.31,0.32,1.4,2.41
			c0.04,0.75,0.06,2,0.71,1.57c4.11-2.69,7.99,2.5,12.04,0.73c0.15,0.09,0.32,0.19,0.49,0.28c1.92,0.93,4.18,0.54,5.6,3.49
			C328.24,84.44,328.31,84.59,328.31,84.74z"/>
		<path class="st6" d="M528.35,113.76c0.42,1.55,0.9,3.07,0.79,4.83c0.88,7.09,1.45,14.17,0.19,21.31
			c-1.14,6.5-3.76,10.24-8.13,10.6c-2.25,0.18-4.39-0.13-5.9,3.18c-0.28,0.62-0.92,0.47-1.41,0.13c-3.63-4.75-5.66-10.5-4.6-18.16
			c0.06-0.46,0-0.92-0.41-0.58c-0.17,0.14-0.29,0.43-0.43,0.69c-1.74,1.84-1.58-0.39-1.49-1.84c0.27-4.52,0.82-9,0.58-13.57
			c-0.05-0.93,0.09-1.89-0.23-2.77c-0.08-1.25-0.16-2.5-0.24-3.74c2.51,0.68,2.05,4.6,3.08,6.89c0.47,1.2-0.35,3.44,1.25,3.73
			c2.52-3.27,5.32-3.97,8.48-2.72c1.56,0.62,3.19-0.34,4.79-0.46c1.43-0.1,1.96-1.84,2.32-3.78
			C527.26,116.12,526.97,114.17,528.35,113.76z"/>
		<path class="st7" d="M179.9,88.13c-0.49,0.71-0.93,1.46-1.34,2.22v0.02c-1.25,2.18-2.28,4.53-3.12,7.05
			c-0.88,2.56-1.57,5.26-2.13,8.1c-0.8,2.72-0.67,5.62-0.73,8.49c-0.07,4.46-0.95,5.77-3.86,5.69c-1.79-0.04-3.55-0.75-5.36-0.71
			c-0.17-0.09-0.34-0.21-0.47-0.35c-0.02,0-0.04-0.02-0.06-0.04c-1.1-1.06-1.29-3.23-2.05-4.74v-0.02
			c-0.02-0.07-0.04-0.13-0.07-0.19c-0.11-0.22-0.21-0.43-0.3-0.65c-0.37-0.82-0.75-1.62-1.19-2.35l-0.02-0.02
			c-0.11-0.24-0.26-0.45-0.43-0.65c-0.02-0.06-0.07-0.11-0.11-0.17c-1.16-1.44-2.16-1.66-2.99-0.15c-0.06,0.11-0.13,0.22-0.19,0.37
			c-0.09,0.22-0.19,0.47-0.28,0.75c-1.06,0.77-2,0.73-2.82,0.11V91.77c2.69-0.28,5.37-0.58,8.06-0.78
			c3.45-0.26,6.79,1.03,10.17,1.75c2.89,0.62,5.9,0.86,7.87-3.81C178.76,88.34,179.13,87.07,179.9,88.13z"/>
		<path class="st8" d="M527.85,117.78c-0.49,3.13-1.32,5.02-3.86,5.02c-2.57,0.02-5.13,0.22-7.65-0.54
			c-2.46-0.75-3.23,4.16-5.52,3.77c-0.88-1.23-0.17-3.4-1.12-4.59c-1.03-2.41-1.29-5.45-2.61-7.59c-0.88-4.74-2.39-8.92-4.63-12.43
			c0.73-1.88,1.96-2,3.15-2.28c4.59-1.03,9.2-1.57,13.83-0.37c1.44,0.37,2.33-0.17,2.99-1.34c0.47-0.84,0.78-1.98,1.06-3.34
			c0.43-2.09-0.19-5.3,2.05-5.91c-0.24,3.15-0.19,6.23,0.09,9.25c0.47,5.56,1.6,10.93,2.72,16.33
			C527.63,114.93,528.06,116.46,527.85,117.78z"/>
		<path class="st9" d="M415.76,113.59c0.04-4.16,1.23-5.3,3.93-4.72c3.12,0.67,6.39-0.57,9.29,2.49c1.06,1.11,1.73-0.13,2.43-1.52
			c0.77-1.54,1.21-3.98,2.95-3.76c-2.22,7.43-0.17,14.66,0.43,21.96c-0.14,0.77-0.13,1.56-0.13,2.35c-0.05,6.09-0.82,7.28-4.73,7.37
			c-1.43,0.03-2.84-0.32-4.19-0.89c-3.05-1.28-6.04-2.01-9.25-1.16c-2.55,0.67-3.03-0.54-2.63-4.5c0.27-2.63,0.94-5.18,0.7-7.92
			C414.95,120.07,415.35,116.83,415.76,113.59z"/>
		<path class="st10" d="M303.65,138.46c0.93,7.22,1.08,14.41-0.56,21.45c-1.96,8.41-6.41,13.11-12.08,12.9
			c-4.65-0.17-7.67-4.87-7.9-12.17c-0.16-4.95,0.78-9.64,1.22-14.46c0.5-5.41,0.86-10.85,1.28-16.27c0.16-0.08,0.32-0.15,0.48-0.23
			c0.29,0.31,0.49,0.71,0.62,1.22c0.49,3.08,0.23,6.21,0.29,9.32c0.04,2.28-0.2,4.5-0.59,6.68c-0.85,5.61-1.92,11.21-0.69,17.45
			c-0.39-4.6-0.67-8.79,0.55-12.8c0.27-0.88,0.57-1.72,0.93-2.51c1.51-3.25,3.43-4.55,6.03-3.68c2.17,0.72,4.43,0.03,6.62,0.46
			c1.88,0.37,2.55-0.8,2.57-3.62C302.41,140.77,302.25,138.89,303.65,138.46z"/>
		<path class="st11" d="M475.65,155.53c1.4,9.13-0.04,17.23-3.92,24.17c-2.84,5.09-6.6,6.58-10.74,4.81
			c-5.83-2.5-8.13-9.77-6.04-18.74c0.59-2.51,1.37-4.9,2.06-7.35c1.65,0.76,0.27,3.02,0.88,4.3c-0.04,4.46-2.08,8.75-0.35,13.24
			c-1-4.05-0.4-7.94,0.78-11.73c1.12-3.43,2.87-4.4,5.25-3.69c2.66,0.79,5.4,0.11,8.09,0.58c1.3,0.23,2.03-0.78,2.47-2.65
			C474.41,157.27,474.33,155.47,475.65,155.53z"/>
		<path class="st12" d="M450.78,104.92c6.18,3.04,12.56,1.99,18.88,2.17c1.05,0.03,1.84,0.75,2.76,1.36
			c1.4,0.93,3.06,0.92,2.02-2.93c0.29-2.46,1.32-3.78,2.79-4.43c0.65,0.27,0.95,0.9,0.84,1.96c-3.89,5.89-4.1,13.77-4.75,21.42
			c-0.75-0.92-0.14-2.35-0.53-3.47c0.08,4.84-0.57,6.32-3.45,7.04c-2.39,0.6-4.81,0.65-7.18-0.33c-1.18-0.49-2.35-0.79-3.57-0.52
			C456.9,118.99,454.79,111.14,450.78,104.92z"/>
		<path class="st13" d="M304.41,91.96c-0.88,1.68-1.51,3.53-2.02,5.47c-0.67,2.56-1.1,5.24-1.59,7.93
			c-0.21,0.13-0.37,0.34-0.39,0.62c-0.41,8.92-0.5,9.07-6.19,9.09c-1.81,0.02-3.64-0.06-5.45,0c-2.61,0.09-4.25-1.47-4.55-5.78
			c0-0.17-0.02-0.35-0.02-0.54c-0.02-0.37-0.06-0.75-0.19-1.06c0-0.02,0-0.02-0.02-0.04c-0.06-0.15-0.17-0.3-0.3-0.41
			c-0.9-3.79-1.79-7.58-2.69-11.34c2,2.76,3.53,0.49,4.85-1.46c0.22-0.32,0.43-0.6,0.63-0.84c1.87-2.3,3.49-2.24,5.06,1.46
			c0.71,1.66,2.05,2.31,2.95,1.51c2.95-2.67,6.64-1.64,9.42-4.96C303.98,91.51,304.24,91.83,304.41,91.96z"/>
		<path class="st14" d="M414.54,123.3c1.05,2.81,0,5.51-0.28,8.19c-0.26,2.5,0.19,3.87,1.74,3.07c4.3-2.2,8.22,0.71,12.28,1.79
			c1.28,0.34,2.55,0.08,3.86-0.34c1.68-0.54,2.46-1.62,2.22-4.38c-0.1-1.2-0.19-2.53,0.41-3.59c0.94,6.44,0.41,12.54-1.94,18.06
			c-2.91,6.83-7.82,9.57-12.69,7.3c-4.61-2.15-7.07-8.04-7.11-16.74C413.01,132.04,413.64,127.64,414.54,123.3z"/>
		<path class="st2" d="M528.08,84.46c-0.09,0.13-0.19,0.28-0.28,0.41c-0.75,1.1-1.51,2.18-2.26,3.3c-1.12,2.2-0.91,5-1.36,7.52
			c-0.11,0.63-0.26,1.21-0.41,1.74c-0.78,2.57-2.09,3.66-4.25,2.93c-5.73-1.96-11.4-0.54-17.05,1.06c-6.06-5.9-12-7.2-17.82-3.99
			c-2.2,1.23-4.4,3.1-6.57,5.63c-0.21-0.6-0.41-1.19-0.62-1.77v-0.06c0.07-1.1,0.3-1.92,0.6-2.56c0.26-0.52,0.58-0.91,0.91-1.25
			c0.97-0.93,2.2-1.38,3.13-2.39c0.04-0.06,0.09-0.09,0.13-0.15l0.11-0.11c0.88,0.39,1.66,0.56,2.3,0.22
			c0.67-0.35,1.18-1.29,1.42-3.13c0.15-1.12,0.86-1.88,1.62-1.75c3.06,0.47,6.38-1.81,9.09,2.76c1.38,2.31,3.04,0.58,4.18-1.38
			c1.6-2.8,2.89-3.12,3.99,0.69c0.43,1.42,1.08,1.6,2,0.93c1.18-0.86,2.44-1.42,3.6-2.37c1.04-0.88,1.98-1.51,2.72-1.21
			c0.65,0.26,1.16,1.25,1.46,3.45c0.34,2.43,1.94,1.7,3.1,1.77c1.4,0.07,2.48-0.99,2.65-3.08c0.24-2.87,1.21-3.66,2.85-3.64
			C525.26,88.06,526.06,84.29,528.08,84.46z"/>
		<path class="st15" d="M457.59,162.25c-1-0.98,0.45-2.87-0.58-3.84c2.12-8.55,2.5-17.44,2.18-26.48c0.94-0.58,0.97-0.6,1.12,0.02
			c0.63,2.6,0.45,5.32,0.39,7.99c-0.09,3.84,1.08,5.15,3.35,4.66c2-0.43,4-0.93,6.03-0.95c1.79-0.01,2.48-1.49,2.41-4.25
			c-0.04-1.76-0.37-3.9,1.2-4.75c0.65,6.96,1.31,13.92,1.96,20.87c-0.92,1-0.41,2.64-0.72,3.9c-0.56,2.32-1.1,4.03-3.26,3.15
			c-3.28-1.33-6.76,0.11-10.14-1.2c-1.48-0.58-1.91,2.38-2.86,3.66C457.98,164.42,458.21,162.93,457.59,162.25z"/>
		<path class="st16" d="M224.12,93.99c-0.04,0.26-0.06,0.54-0.07,0.8c-0.02,0.13-0.04,0.24-0.04,0.35
			c-0.3,3.53-0.07,7.05-0.07,10.56c0,2.67-0.84,4.38-2.33,4.74c-2.15,0.5-4.44,1.14-6.55,0.21c-1.92-0.86-3.66-2.39-5.78-1.46
			c-0.93,0.41-0.97-0.88-1.18-2c-0.47-2.5,0.21-5.36-1.04-7.56c-0.71-3.47-1.96-6.4-3.36-9.16c-0.41-0.8-0.82-1.57-1.25-2.35
			c0.76-0.09,1.49-0.09,2.16,0.21c0.71,0.26,1.34,0.86,1.88,1.94c0.86,1.7,1.94,1.66,3.25,1.19c3.36-1.19,6.7-0.43,10.04,0.15h0.02
			c1.23,0.22,2.44,0.43,3.68,0.5C224.01,92.17,224.12,93.17,224.12,93.99z"/>
		<path class="st17" d="M224.19,112.45c-0.11,5.04-1.27,9.55-3.62,13.14c-1.96,2.97-4.2,4.96-7.07,3.79c-3-1.25-4.59-4.7-5.02-9.14
			c-0.65-6.81-0.97-13.71-1.44-20.58c2.26,2.03,0.88,5.78,1.68,8.79c2.13-1.51,3.86-1.08,6.08,0.75c1.87,1.55,4.76,0.41,7.13-0.15
			c1.18-0.26,1.68-2.18,1.72-4.4c0.07-3.17-0.5-6.46,0.19-9.57c0.02-0.11,0.06-0.22,0.09-0.34c0.04-0.24,0.11-0.49,0.19-0.73
			c0.06,0.34,0.11,0.65,0.17,0.97v0.35C224.27,101.03,224.34,106.74,224.19,112.45z"/>
		<path class="st18" d="M303.65,138.46c-0.11,0.26-0.27,0.49-0.33,0.78c-0.55,2.69,0.77,6.57-0.73,7.99
			c-1.25,1.19-3.46-0.09-5.24-0.25c-1.89-0.18-3.79,0.29-5.68-0.72c-2.11-1.13-2.78,2.56-4.28,3.57c-0.97-1.43-0.53-3.14-0.39-4.79
			c0.14-1.72,0.24-3.42-0.81-4.63c-0.01-3.5-0.03-7.01-0.04-10.51c3.04-2.71,6.12-0.27,9.12,0.12c4.47,0.59,4.98,0.22,4.78-6.64
			c-0.05-1.78-0.43-3.85,1.09-4.82C301.98,125.19,302.82,131.82,303.65,138.46z"/>
		<path class="st6" d="M301.15,118.56c-0.71,2.08-0.45,4.22-0.16,6.37c0.68,4.98-1.38,7.9-4.48,6.81c-3.39-1.2-6.85-1.91-10.34-1.84
			c0,0,0,0,0,0c-0.68-4.65-0.09-9.61-1.43-14.09c-0.35-2.86-0.7-5.71-1.05-8.57c0.08-0.1,0.16-0.19,0.24-0.29
			c0.83,8.1,4.76,6.95,8.35,6.82c0.4-0.01,0.81,0.06,1.2-0.01c1.86-0.32,3.89,0.99,5.57-0.87c1.91-2.12,0.77-5.54,1.13-8.33
			c0.01-0.09,0.19-0.2,0.19-0.2c0.15,0.33,0.29,0.67,0.43,1.01C300.92,109.76,301.03,114.16,301.15,118.56z"/>
		<path class="st19" d="M172.66,142.4c-0.3-0.11-0.54-0.35-0.71-0.71c-0.04-0.07-0.07-0.15-0.09-0.22
			c-0.04-0.11-0.07-0.22-0.11-0.35c-0.15-1.19,0.13-2.37,0.02-3.56c-0.11-1.01-0.39-1.36-0.84-1.1h-0.02
			c-0.09,0.06-0.21,0.15-0.32,0.26c-0.02,0.02-0.04,0.06-0.04,0.07c-0.43,0.71-0.73,1.72-1.36,2c-0.04,0.04-0.09,0.06-0.13,0.06
			c-0.11,0.06-0.24,0.07-0.39,0.06c-2.03-3.99-5.08-3.49-7.84-4.22c-1.53-0.41-2.43-0.65-2.87-1.21c-0.04-0.04-0.07-0.07-0.11-0.13
			c-0.5-0.8-0.32-2.24,0.15-5.45c0-2.2,0.02-4.4,0.02-6.61c0.02-6.31-1.47-9.03-5.5-9.37c-0.04,0-0.07,0-0.11-0.02v-2.05
			c0.82,0.8,1.64,1.64,2.65-0.09c0.22-0.06,0.43-0.09,0.63-0.07c1.51,0.02,2.28,1.66,3,3.41c0.09,0.26,0.21,0.54,0.32,0.82
			c0.07,0.19,0.15,0.35,0.22,0.52c0.39,0.97,0.54,2.05,0.6,3.15c0.13,2.09-0.04,4.27,0.69,6.12c0.06,0.19,0.13,0.35,0.22,0.52
			c2.13-0.56,0.88-4.24,2.11-5.62c0.02-0.04,0.04-0.06,0.06-0.07c1.42-1.44,2.82-0.73,4.33-0.22c3.83,1.27,4.55,0.15,4.8-5.88
			c0.09-2.43,0.52-4.81,0.8-7.22c0-0.04,0.19-0.04,0.28,0c0.07,0.07,0.15,0.21,0.21,0.32c-0.28,7.07-0.13,14.11,0.32,21.16
			C173.96,131.97,174.17,137.34,172.66,142.4z"/>
		<path class="st20" d="M473.69,134.65c-0.82,1.87-0.63,4-0.29,5.88c0.55,3.04-0.46,4.51-2,4.4c-3.13-0.22-6.15,1.18-9.26,1.14
			c-1.66-0.02-2.35-0.84-2.3-3.52c0.06-3.56-0.08-7.14-0.15-10.7c0-0.05-0.16-0.14-0.24-0.13c-0.09,0.02-0.18,0.14-0.26,0.22
			c-0.57-1.47-0.61-3.1-0.59-4.75c0.43-2.95,1.66-2.17,2.76-1.3c2.57,2.03,5.32,1.31,7.94,0.94c2.17-0.3,4.1-2.01,3.79-6.47
			c0.08,1.37,0.16,2.74,0.24,4.12C473.45,127.87,473.57,131.26,473.69,134.65z"/>
		<path class="st21" d="M157.99,127.88c-0.07,1.23-0.06,2.49-0.23,3.69c-0.15,1.08-0.06,2.31,0.65,1.88c1.6-0.96,3.19,1.18,4.2,0.64
			c3.28-1.75,4.7,1.62,6.48,4.39c0.82,1.94-0.05,3.55-0.42,5.27c-0.18,0.81-0.68,1.87,0.13,2.35c0.64,0.39,1.03-0.7,1.43-1.36
			c0.63-1.11,0.89-2.67,1.77-3.45c0.22,0.37,0.44,0.74,0.66,1.1c-1.24,7.6-4.51,12.78-8.29,13.11c-4.61,0.41-8.7-5.26-8.88-12.47
			C155.36,137.62,156.48,132.66,157.99,127.88z"/>
		<path class="st22" d="M404.78,95.84c-0.28,0.37-0.52,0.75-0.77,1.16c-1.34,2.24-2.07,4.96-2.52,8.08
			c-1.27,9.01-4.53,12.32-10.37,10.62c-3.86-1.12-7.15-4.14-9.85-8.58c-2.67-4.35-5.3-8.81-7.91-13.21c-0.19-0.3-0.35-0.6-0.54-0.9
			c0.45,0.04,0.86,0.17,1.25,0.35c2.24,1.01,3.79,3.92,5.67,5.86c1.32,1.36,2.57,2.31,4.18,2.22c4.09-0.22,8.17-0.32,12.26-0.56
			c0.54-0.04,0.95,0.07,1.4,0.49c1.9,1.74,3.34,1.68,4.22-2.16c0.22-1.01,0.63-2,1.21-2.63C403.47,96.06,404.07,95.77,404.78,95.84z
			"/>
		<path class="st9" d="M337.67,113.07c-0.54-1.83-0.55-3.78-0.56-5.73c-0.18-0.46,0.05-1.2,0.11-1.13c2.26,2.72,5.24-0.09,7.61,2.59
			c1.68,1.89,3.23,0.94,3.99-2.4c0.44-1.92,0.97-3.84,1.91-5.33c0.57-0.92,0.61-0.86,1.03,1.18c-1.73,5.83-2.24,12.14-2.92,18.37
			c-0.88,2.67-0.41,5.54-0.37,8.28c0.04,3.3-1,4.23-2.79,3.94c-2.23-0.36-4.3-1.63-6.31-3.11c-1.2-0.88-1.2-2.64-1.28-4.43
			C337.88,121.23,338.65,117.08,337.67,113.07z"/>
		<path class="st23" d="M349.88,159.32c-1.82,7.46-2.14,7.71-7.51,5.99c-0.1-0.03-0.2-0.14-0.29-0.11c-3.67,1.3-4.73-1.54-4.4-6.69
			c0.02-0.33-0.34-0.72-0.52-1.08c0.24-8.21,0.49-16.43,0.73-24.64c2.13,1.52,1.24,4.57,1.3,6.95c0.18,6.76,1.11,8.05,5.43,7.57
			c2.11-0.23,2.63-1.75,2.7-4.77c0.06-2.69-0.9-5.99,1.31-7.87C349.05,142.88,349.46,151.1,349.88,159.32z"/>
		<path class="st19" d="M348.63,134.66c-1.09,3.6-0.31,7.41-0.5,11.12c-0.1,2.03-0.2,3.04-1.92,2.74c-1.93-0.34-3.88,0.35-5.91-0.41
			c-1.57-0.59-1.86-1.54-1.94-3.73c-0.14-3.87,0.57-7.83-0.47-11.6c-0.07-6.57-0.15-13.14-0.22-19.71c0.21-0.72,0.57-2.39,0.67-0.08
			c0.17,3.91,0.1,7.86,0.03,11.79c-0.04,2.38,0.51,3.56,2.02,4.44c7.58,4.4,7.61,4.43,7.71-8.06c0.01-0.85,0-1.71,0-2.77
			c0.84,0.63,0.54,1.57,0.72,2.23C348.77,125.3,348.7,129.98,348.63,134.66z"/>
		<path class="st24" d="M359.73,88.17c-2.85,2.91-5.13,6.62-6.89,11.06c-0.39,0.97-0.75,1.96-1.08,3c-0.02-0.04-0.02-0.07-0.04-0.13
			c-0.02-0.11-0.04-0.19-0.06-0.28c-0.04-0.21-0.07-0.39-0.11-0.5c-0.07-0.21-0.19-0.22-0.39,0.26c-0.78,1.81-1.62,3.81-1.87,5.9
			c-0.62,4.96-2.91,4.05-4.53,2.84c-1.59-1.19-2.78-2.93-4.65-1.47c-1.25,0.99-1.59-2.99-3-1.49c-0.37-0.63-0.5-1.34-0.41-2.18
			c0.47-1.21-0.37-2.8,0.45-3.92c0.02,0,0.02,0,0.04,0c0.02,0,0.04,0.02,0.04,0.02c0.65,0.06,0.97,0.47,1.12,1.06
			c0,0.02,0,0.02,0,0.04c0.11,0.52,0.09,1.18,0.06,1.85c0.13,1.98,1.03,2.85,2.09,2.44c1.04-0.41,0.93-2.18,0.93-3.6
			c-0.02-2.05-1.08-4.61-0.11-6.23c0.13-0.24,0.32-0.47,0.54-0.65c2.33-1.94,4.74-5.02,7.48-4.09c3.38,1.12,6.01-0.54,8.7-3.12
			C358.52,88.51,359.15,88.43,359.73,88.17z"/>
		<path class="st25" d="M513.86,152.55c0.9,1.64,1.54,0.53,1.73-0.73c0.55-3.63,2.28-3.29,3.82-2.69c1.16,0.45,2.08,0.35,3.17-0.32
			c4.86-2.98,6.87-7.73,7.17-16.13c0.17-4.78-0.86-9.36-0.61-14.09c1.77,8.34,1.91,16.7-0.05,24.97
			c-1.85,7.79-5.69,12.16-10.77,13.66c-6.32,1.86-11.25-4.79-11.7-15.54c-0.34-8.07,0.69-16.05,0.7-24.1
			c0.95,4.94,0.65,9.85-0.02,14.8c-0.33,2.42-0.12,2.72,0.95,2.24c1.18,0.99,0.8,2.76,0.77,4.23
			C508.93,144.93,510.37,149.61,513.86,152.55z"/>
		<path class="st9" d="M337.2,101.38c-0.1,1.28,0.24,2.71-0.49,3.8c-1.57-8.05-3.85-15.35-8.65-19.99c0-0.3,0-0.6,0.01-0.9
			c0.61,0.02,1.22,0.04,1.83,0.07c3.25,1.62,4.39,6.23,5.95,10.25C336.36,96.83,338.12,98.45,337.2,101.38z"/>
		<path class="st18" d="M284.74,115.8c2.23,4.26,1.18,9.34,1.43,14.09c-0.19,0-0.38,0.01-0.56,0.02
			C285.31,125.2,285.03,120.5,284.74,115.8z"/>
		<path class="st26" d="M202.96,85.27c-2.03-2.02-4.05-4.05-6.09-6.04c-0.82-0.8-2.05-1.2-1.12-3.38
			C200.03,76.27,202.71,79.78,202.96,85.27z"/>
		<path class="st27" d="M335.36,94.79c-1.51-3.87-3.41-7.25-5.46-10.44c3.32-1.91,5.43,0.01,7.29,6.62
			C337.5,95.35,337.23,95.91,335.36,94.79z"/>
		<path class="st28" d="M335.36,94.79c2.14,0.52,1.22-2.55,1.83-3.82c1.96,4.07,3.13,8.32,1.21,13.25c-0.4-0.95-0.8-1.9-1.2-2.85
			C337.16,98.79,335.49,97.31,335.36,94.79z"/>
		<path class="st29" d="M482.23,94.89c-1.27,2.72-3.8,3.14-4.78,6.4c-1,1.41-2.01,2.82-3.01,4.24c-0.93-0.44-1.48-1.18-0.62-2.59
			C476.17,99.1,478.64,95.54,482.23,94.89z"/>
		<path class="st30" d="M432.34,102.98c2.02-3.41,3.68-5.22,6.35-6.29C436.8,99.76,435.73,102.98,432.34,102.98z"/>
		<path class="st31" d="M248.69,95.25c-2.61-1.17-4.31-3.91-5.63-7.32c-0.28-0.73-0.76-1.74,0.01-2.43c0.5-0.44,1-0.02,1.22,0.81
			C245.25,89.92,247.28,92.17,248.69,95.25z"/>
		<path class="st32" d="M338.45,213.33c-0.06,1.01,0.12,1.98-0.43,2.34c-0.28,0.18-0.76-0.12-1.07-0.42
			c-1.79-1.71-3.09-7.44-2.49-10.57c0.3-1.53,0.79-2.6,1.89-2.5c1.19,0.11,1.51,1.4,1.37,3
			C337.47,208.1,338.25,210.78,338.45,213.33z"/>
		<path class="st33" d="M350.25,183.27c-0.84-4.81-1.49-8.36-2.07-11.93c-0.14-0.86-0.31-2.06,0.43-2.41
			c0.94-0.45,1.2,0.74,1.29,1.88C350.18,174.49,350.89,178.14,350.25,183.27z"/>
		<path class="st34" d="M513.86,152.55c-3.55-1.84-5.27-5.2-5.5-10.89c-0.09-2.34-0.08-4.68-0.11-7.02
			c0.25-1.09,0.09-2.89,1.22-2.66c1.15,0.24,0.85,1.99,0.67,3.03C508.93,142.16,510.63,147.73,513.86,152.55z"/>
		<path class="st35" d="M509.69,121.44c2.04,0.55,0.83,3.02,1.12,4.6C508.5,125.66,510.03,122.99,509.69,121.44z"/>
		<path class="st36" d="M162.9,118.52c-0.27,2.94,1.01,7.11-2.45,7.51c-1.08-3.72-0.5-7.66-0.59-11.5
			c-0.02-0.88,0.39-1.78,1.17-1.72C162.08,114.37,162.6,116.36,162.9,118.52z"/>
		<path class="st37" d="M161.02,112.81c-1.16,4.3-0.3,8.82-0.58,13.22c-1.24-0.67-1.24-2.28-1.16-3.89c0.14-2.56-0.22-5-0.65-7.43
			c0.3-1.85-0.62-4.01,0.58-5.64C159.82,110.32,160.42,111.57,161.02,112.81z"/>
		<path class="st38" d="M159.21,109.07c-0.15,1.89,0.51,3.99-0.58,5.64c-0.96-2.08-1.99-4.03-3.59-4.97
			C156.13,104.99,157.7,107.49,159.21,109.07z"/>
		<path class="st39" d="M286.8,151.75c-0.95,5.18-1.01,10.35,0.04,15.52c-4.09-6.16-2.02-13.31-1.24-20.25
			C287.24,147.22,287.32,147.52,286.8,151.75z"/>
		<path class="st40" d="M286.8,151.75c-0.41-1.57,0.83-4.16-1.2-4.73c0.2-2.21,0.4-4.41,0.6-6.61c1.87-0.39,1.87,1.56,1.74,3.51
			c-0.13,1.98-0.36,3.94-0.54,5.91C287.2,150.47,287,151.11,286.8,151.75z"/>
		<path class="st41" d="M457.59,162.25c2.23-0.86,0.54,2.03,1.09,2.78c-1.25,6.14-1.25,6.66,0.12,13.52
			c-2.45-1.45-3.41-5.8-2.39-11.04C456.74,165.74,457.19,164,457.59,162.25z"/>
		<path class="st42" d="M416.15,138.46c0.2,0.08,0.81,0.03,0.93,0.4c1.31,3.77,2.65,7.53,3.72,11.47c0.3,1.11-0.62,1.06-1.25,0.76
			c-2.12-0.99-5.06-6.91-5.11-10.35C414.42,139.11,415.06,138.6,416.15,138.46z"/>
		<path class="st1" d="M504.1,96.33c-0.15,1.36-0.64,2.1-1.45,2.05c-0.58-0.03-0.83-0.76-0.83-1.65c0.01-1.1,0.3-1.81,1.06-1.86
			C503.57,94.82,504.05,95.19,504.1,96.33z"/>
		<path class="st43" d="M212.29,125.92c-2.28-1.44-2.62-4.01-3.16-6.32c-0.2-0.87-0.29-2.1,0.38-2.45c0.87-0.46,1.17,0.65,1.38,1.81
			C211.27,121.04,211.72,123.07,212.29,125.92z"/>
		<path class="st44" d="M170.81,145.06c-0.43,1.01-0.61,2.4-1.47,2.81c-0.67,0.32-1.43,0.48-1.99-0.36
			c-0.54-0.81-0.14-1.71,0.1-2.55c0.61-2.12,1.5-4.07,1.64-6.49c0.36-0.98,0.72-1.97,1.08-2.95
			C172.97,138.29,171.01,141.82,170.81,145.06z"/>
		<path class="st45" d="M170.81,145.06c-0.38-3.15,0.54-6.51-0.63-9.54c0.62-1.13,1.57-1.33,2.03-0.3c0.85,1.92,0.39,4.07-0.2,6.06
			C171.85,142.73,171.52,144.04,170.81,145.06z"/>
		<path class="st46" d="M390.12,112.38c-2.95-1.1-5.52-3.01-7.16-7.11c-0.29-0.72-1.04-1.52-0.39-2.39
			c0.68-0.91,1.41-0.17,1.77,0.81C385.74,107.49,387.98,109.81,390.12,112.38z"/>
	</g>
	<g>
		<path class="st0" d="M203.18,55.56c-1.9-2.8-5.5-4.8-10.84-6.01c4.78-1.08,7.99-2.65,9.61-4.7c1.62-2.03,2.44-5.65,2.44-10.82
			c0-7.67-1.16-13.21-3.45-16.66c-2.3-3.43-5.32-5.73-9.07-6.87c-3.73-1.12-9.24-1.7-16.49-1.7h-22.99v88.63h23.04
			c0.84-2.52,1.87-4.87,3.12-7.05v-0.02c0.47-0.63,0.91-1.38,1.34-2.22c0.84-0.93,1.6-2.03,2.48-2.8c7.07-6.12,13.75-4.66,20.06,2.8
			c0.43,0.78,0.84,1.55,1.25,2.35c0.11-0.19,0.21-0.37,0.3-0.56c0.04-0.06,0.06-0.13,0.07-0.19c0.21-0.43,0.39-0.9,0.54-1.4
			c0.15-0.39,0.26-0.78,0.35-1.21c0.11-0.35,0.21-0.73,0.28-1.1c0.54-2.54,0.8-5.67,0.8-9.42v-8.21
			C206.04,62.63,205.09,58.35,203.18,55.56z M175.44,23.97c2.37,0.04,3.96,0.21,4.78,0.49c0.84,0.3,1.49,1.01,2.02,2.11
			c0.5,1.12,0.77,3.06,0.77,5.84c0,5.24-0.32,8.43-0.93,9.55c-0.63,1.1-2.07,1.66-4.33,1.66c-0.54,0-1.31,0.02-2.3,0.06V23.97z
			 M182.99,73.99c0,1.44-0.07,2.67-0.22,3.68c-0.06,0.39-0.11,0.73-0.19,1.04c-0.22,0.93-0.54,1.6-0.93,2.02
			c-0.9,0.91-2.97,1.42-6.21,1.53v-24.8c3.43,0.11,5.54,0.58,6.34,1.38c0.8,0.8,1.21,3.1,1.21,6.89V73.99z"/>
		<path class="st0" d="M266.29,26.37c-0.43-3.64-1.79-7.02-4.1-10.13c-2.3-3.1-5.34-5.41-9.11-6.98c-3.77-1.55-8.04-2.31-12.78-2.31
			c-5,0-9.39,0.82-13.14,2.46c-3.75,1.64-6.74,3.99-8.96,7.05c-2.2,3.06-3.51,6.46-3.94,10.15c-0.41,3.71-0.63,10.02-0.63,18.92
			v15.15c0,4.68,0.06,8.64,0.17,11.89c0.09,2.35,0.21,4.33,0.37,5.91c0.04,0.5,0.07,0.95,0.13,1.36c0,0.07,0.02,0.13,0.04,0.21
			c0.45,3.58,1.79,6.89,4.07,9.93c0.43,0.58,0.88,1.12,1.36,1.64h0.02c0.54,0.63,1.16,1.21,1.81,1.77c0.02,0,0.02,0,0.04,0.02
			c0.69,0.6,1.42,1.14,2.2,1.64c0.06,0.04,0.11,0.07,0.17,0.09c0.09,0.07,0.19,0.13,0.28,0.17v-0.35c0.75-4.11,1.14-8.28,2.93-11.9
			c2.65-5.3,6.44-6.77,9.61-4.22c-0.02-0.35-0.06-0.73-0.06-1.14v-0.02c-0.02-0.28-0.04-0.56-0.04-0.86
			c-0.04-1.12-0.06-2.41-0.06-3.86V31.58c0-4.57,0.34-7.31,0.97-8.25s1.55-1.4,2.76-1.4c1.42,0,2.37,0.58,2.82,1.74
			c0.45,1.14,0.69,3.79,0.69,7.91v40.99c0,2.89-0.07,5.19-0.22,6.87c-0.06,0.65-0.13,1.23-0.21,1.7c-0.07,0.43-0.15,0.78-0.24,1.06
			c-0.41,1.36-1.36,2.03-2.85,2.07c1.27,2.78,2.44,5.67,3.69,8.47c1.25,2.78,2.72,4.72,4.46,5.67c1.74-0.39,3.36-0.91,4.89-1.59
			c1.83-0.8,3.47-1.77,4.93-2.91c0.88-1.77,1.42-3.99,1.59-6.61c0.43-6.57,3.27-10.37,6.66-11.01c0.02-0.28,0.04-0.58,0.06-0.88
			c0-0.17,0.02-0.35,0.02-0.52c0.04-0.73,0.07-1.51,0.09-2.33c0.13-3.25,0.19-7.2,0.19-11.89V45.54
			C266.96,36.41,266.74,30.03,266.29,26.37z"/>
		<path class="st0" d="M303.47,8.8c-3,13.83-5.15,25.47-6.42,34.93c-0.43-5.99-2.3-17.63-5.6-34.93H270.3l16.2,56.56v32.08h15.9
			c0.5-1.94,1.14-3.79,2.02-5.47c1.14-1.64,2.3-3.08,3.43-4.31v-22.3L324.65,8.8H303.47z"/>
		<path class="st0" d="M382.38,47.4v-8.43c0-8.27-0.69-14.37-2.07-18.27c-1.38-3.92-4.29-7.2-8.71-9.81
			c-4.4-2.63-10-3.94-16.79-3.94c-5,0-9.42,0.84-13.27,2.54c-3.86,1.7-6.87,4.03-9.05,6.98c-2.16,2.97-3.47,6.03-3.9,9.22
			c-0.45,3.21-0.65,7.99-0.65,14.37v25.9c0,2.37,0.06,4.57,0.15,6.62c0.09,1.53,0.21,2.99,0.34,4.33c0.11,1.12,0.26,2.16,0.39,3.13
			c0,0.02,0.02,0.04,0.02,0.06c0.24,1.59,0.54,3,0.9,4.25c0.07,0.3,0.17,0.58,0.24,0.84c0.04,0.09,0.06,0.19,0.09,0.28
			c0.86,2.63,2.28,4.89,4.24,6.81c0,0,0,0,0.02,0.02c0.3,0.34,0.65,0.65,1.01,0.93c0.43,0.39,0.88,0.73,1.34,1.04
			c0.17,0.15,0.34,0.26,0.52,0.39c0.26,0.17,0.5,0.34,0.77,0.47h0.02c0.26,0.19,0.52,0.34,0.78,0.49c0.06,0.04,0.11,0.07,0.19,0.09
			c0.75,0.43,1.55,0.8,2.37,1.12c0.45,0.21,0.91,0.39,1.4,0.54c2.97,1.04,6.34,1.66,10.13,1.87c1.75-4.44,4.03-8.15,6.89-11.06
			c4.85-1.68,9.12,0.47,13.08,4.83c0.19,0.3,0.35,0.6,0.54,0.9c0.13-0.07,0.24-0.17,0.35-0.26c0.11-0.07,0.24-0.17,0.35-0.28
			c3.19-2.5,5.32-5.32,6.38-8.49c0.21-0.62,0.41-1.29,0.58-2.05V82.8c0.15-0.63,0.28-1.34,0.41-2.09c0.37-2.24,0.63-4.96,0.8-8.14
			c0.09-2.18,0.15-4.59,0.15-7.22V61.9h-23.04v11.14c0,2.22-0.06,4.09-0.17,5.58c-0.04,0.5-0.07,0.99-0.13,1.4
			c-0.11,1.03-0.28,1.79-0.49,2.3c-0.54,1.32-1.66,1.98-3.38,1.98c-1.77,0-2.93-0.65-3.43-1.98c-0.21-0.52-0.37-1.27-0.49-2.24
			c-0.06-0.43-0.09-0.9-0.13-1.4c-0.11-1.31-0.15-2.91-0.15-4.8V32.72c0-4.48,0.24-7.41,0.77-8.75c0.5-1.34,1.72-2.03,3.6-2.03
			c1.68,0,2.76,0.56,3.27,1.68c0.49,1.1,0.73,3.9,0.73,8.38V47.4H382.38z"/>
		<path class="st0" d="M442.65,26.37c-0.43-3.64-1.81-7.02-4.11-10.13c-2.3-3.1-5.34-5.41-9.11-6.98
			c-3.79-1.55-8.04-2.31-12.78-2.31c-5,0-9.39,0.82-13.14,2.46c-3.77,1.64-6.75,3.99-8.96,7.05c-2.2,3.06-3.53,6.46-3.94,10.15
			C390.2,30.33,390,36.64,390,45.54v15.15c0,4.68,0.06,8.64,0.17,11.89c0.11,3.08,0.28,5.52,0.49,7.28
			c0.17,1.31,0.45,2.59,0.84,3.83c0.15,0.5,0.34,1.01,0.54,1.49c0.67,1.68,1.59,3.28,2.72,4.81c2.13,2.85,4.87,5.06,8.25,6.59
			c0.21,0.11,0.41,0.19,0.62,0.28c0.07,0.04,0.17,0.07,0.26,0.11c0.04,0.02,0.09,0.04,0.13,0.04c0.24-0.41,0.49-0.78,0.77-1.16
			c3.4-1.08,6.38,0.22,8.34,3.3c1.14,0.09,2.33,0.15,3.55,0.15c5,0,9.37-0.82,13.14-2.46c3.75-1.66,6.74-4.01,8.94-7.07
			c0.45-0.62,0.84-1.23,1.21-1.87c0.34-0.58,0.63-1.16,0.91-1.75c0.95-2.05,1.57-4.24,1.83-6.53c0.06-0.58,0.13-1.21,0.17-1.92
			c0.04-0.43,0.07-0.9,0.09-1.38c0.07-1.12,0.13-2.37,0.19-3.73c0.11-3.25,0.17-7.2,0.17-11.89V45.54
			C443.31,36.41,443.1,30.03,442.65,26.37z M420.17,77.37c-0.02,0.47-0.04,0.91-0.06,1.32c-0.11,1.64-0.28,2.82-0.5,3.51
			c-0.43,1.4-1.44,2.09-3,2.09c-1.53,0-2.52-0.62-2.93-1.81c-0.32-0.88-0.5-2.82-0.6-5.78c0-0.41-0.02-0.86-0.02-1.32
			c-0.02-0.75-0.02-1.55-0.02-2.41V31.58c0-4.57,0.32-7.31,0.95-8.25c0.65-0.93,1.57-1.4,2.78-1.4c1.42,0,2.35,0.58,2.82,1.74
			c0.45,1.14,0.67,3.79,0.67,7.91v40.99C420.26,74.42,420.23,76.01,420.17,77.37z"/>
		<path class="st0" d="M447.97,8.8v17.74h13.62v70.89h23.04V26.54h13.7V8.8H447.97z"/>
		<path class="st0" d="M499.64,8.8v17.74h13.62v70.89h12.37c-0.28-3.02-0.34-6.1-0.09-9.25c0.75-1.12,1.51-2.2,2.26-3.3
			c0.09-0.13,0.19-0.28,0.28-0.41c2.63-1.81,5.36-2.99,8.23-3.02v-54.9H550V8.8H499.64z"/>
	</g>
	<g>
		<g>
			<path class="st47" d="M14.26,81.17c-0.67-1.45-2.22-2.04-3.27-3.31c1.09-0.3,1.94,0.73,3.11,0.27c-1.16-1.06-2.62-1.61-3.49-3.05
				c0.6,0.14,1.11,0.25,1.61,0.36c1.77,0.14,1.77,0.14,1.39-1.78c-0.12-0.11-0.22-0.28-0.36-0.33c-1.74-0.64-2.32-1.79-2.06-3.67
				c0.2-1.48-1.32-2.44-1.73-3.79c-0.8,0.81-1.79-0.52-2.63,0.26c-0.72,0.67-0.4,1.05,0.19,1.57c0.19,0.17,0.03,0.74,0.03,1.19
				c-1.24-1.14-2.6-0.08-3.89-0.44c0.47-0.38,0.94-0.72,1.37-1.11c0.64-0.59,0.06-1.15-0.29-1.38c-0.7-0.47-1.04-0.74-0.86-1.19
				c0.18-0.46,0.18-0.46,1.63,0.05c0.1-1.14,0.13-2.1,1.34-2.98c0.78-0.57,1.7-1.72,2.05-3.05c0.55-2.07,1.47-4.04,2.24-6.05
				c0.38-0.99,0.99-1.76,1.96-2.23c0.65-0.29,0.87-1.1,1.59-1.3c0.15-0.2,0.74,0.31,0.6-0.38c-0.09-0.46,0.06-0.88,0.33-1.26
				c0.06-0.05,0.13-0.09,0.19-0.14c0.64,0.46,1.2,0.22,1.53-0.35c0.34-0.61,1.29-0.99,0.75-1.98c-1.16-2.12-0.99-4.31-0.23-6.5
				c0.59-0.59,1.35-0.51,2.08-0.51c14.62-0.01,29.24-0.11,43.86,0.08c3.33,0.04,6.65-0.27,9.98-0.04c0.32,0.01,0.63,0.09,0.96,0.05
				c1.24-0.14,2.49-0.09,3.74-0.09c13.37,0,26.73,0,40.1,0c0.85,0,1.7-0.04,2.54,0.06c1.3,0.19,0.59,1.42,1,2.07
				c0.33-0.77,0.31-1.67,1.08-2.19c0.33-0.13,0.66-0.13,0.98,0.01c0.71,0.59,0.68,1.37,0.57,2.13c0.42-0.61-0.66-1.84,0.77-2.12
				c0.48,0.03,0.76,0.3,0.94,0.72c0.2,0.53-0.15,1.09,0.13,1.71c0.62-0.18,0.9-0.73,1.27-1.16c0.56-0.37,0.93-0.93,1.4-1.41
				c0.18-0.07,0.36-0.11,0.55-0.13c5.53-0.06,11.06-0.03,16.59-0.01c0.81,0,1.74-0.14,2.21,0.84c-0.31,1.22,1.15,0.13,1.14,1.07
				c-0.66,0.77-1.25,1.68,0.61,1.95c0.2,0.03,0.34,0.1,0.33,0.44c-0.04,1.48,0.77,2.07,2.22,2.1c0.63,0.01,0.63,1.06,1.31,1.22
				c0.16,0.33-0.14,0.59-0.15,0.91c0.31-0.13,0.47-0.43,0.74-0.58c0.69-1.13,1.42-0.45,1.53,0.22c0.15,0.92,0.75,0.89,1.28,1.01
				c1.01,0.22,2.1,0.25,2.99,0.82c0.55,0.35,0.68-0.21,0.91-0.34c0.54-0.3,0.7-0.12,0.82,0.35c0.22,0.24,0.2,0.48,0.03,0.73
				c0.58,0.94,1.46,1.84,1.06,3.05c-0.25,0.75-0.41,1.93-1.77,1.33c-0.26,0.13-0.4-0.03-0.54-0.21c-0.08,0.13,0.05,0.21,0.08,0.31
				c0.15,0.47,0.45,0.94,0.05,1.42c-0.47,0.57-0.9-0.14-1.43-0.07c0.22,0.82,2.36-0.12,1.48,1.6c0.01,0.34,0.01,0.68,0.02,1.03
				c0.19,0.59,0.22,1.25-0.48,1.42c-2.07,0.48-1.22,1.89-1.16,3.15c1.33-1.04,1.46-0.99,2.03,0.52c0.46,1.85,1.49,3.52,1.73,5.45
				c-0.24,0.25-0.49,0.25-0.74,0.01c-0.92-0.81-1.38-0.61-1.44,0.62c-0.04,0.94-0.07,0.93-0.8,0.71c-0.07-0.02-0.18,0.1-0.28,0.12
				c-2.1,0.42-3.4,1.83-4.35,3.6c-0.27,0.51,0.3,0.89,0.68,1.22c0.79,0.11,1.26,0.65,1.67,1.27c1.92,0.41,2.05,1.7,1.78,3.35
				c-0.33,2.08,0.1,3.66,2.45,4.6c2.43,0.97,4.4,2.82,6.27,4.69c-2.65-1.39-5.14-3.04-7.82-4.38c-0.91-0.46-1.26-0.16-1.29,0.59
				c-0.04,1.08-0.39,2.2,0.7,3.16c0.65,0.57,0,1.7-0.27,2.19c-0.48,0.86-0.82-0.41-1.36-0.55c-0.21,1.83-1.77,2.73-2.84,3.93
				c-0.93,1.04-1.65,1.87-0.77,3.32c0.38,0.63,0.33,1.52,0.56,2.26c0.26,0.83,0.2,1.3-0.82,1.5c-0.53,0.1-1.6,0.39-0.34,1.34
				c0.36,0.27-0.56,1.16-1.18,1.55c-0.89,0.72-1.95,0.51-2.95,0.51c-22.99,0.01-45.99,0.01-68.98,0.01
				c-14.08,0-28.16,0.02-42.23-0.01c-1.13-0.09-2.13-0.31-1.83-1.85c0.06-0.33-0.18-0.63-0.4-0.88c-0.61-0.64-1.49-0.76-2.23-1.15
				c-0.65-0.43-1.26-0.87-2.11-0.91c-0.64-0.03-1.12-0.48-1.39-1.09c-0.17-0.38,0.18-0.44,0.37-0.59c-0.3,0.11-0.64,0.12-0.94,0.33
				c0.37,0.8,0.79,1.52,1.31,2.18c0.38,0.47,0.75,1.09,1.42,0.27c0.33-0.41,0.7-0.15,1.02,0.11c0.19,0.15,0.46,1.02,0.59-0.04
				c1.06,0.28,1.49,1.27,2.21,1.94c0.04,0.56,0.11,1.12-0.47,1.47c-0.82,0.33-1.67,0.23-2.52,0.21c-0.27-0.02-0.54-0.06-0.8-0.13
				c-0.33-0.09-0.65-0.21-0.97-0.33c-1.35-0.67-2.41-1.62-3.11-3c-0.71-1.42-2.11-2.36-2.72-3.86c0.36,1,1.09,1.72,1.74,2.52
				c0.99,1.22,2.04,2.46,1.6,4.25c-0.26,0.34-0.64,0.55-1.02,0.51c-2.95-0.37-5.94,0.09-8.87-0.56c-0.98-1.53-1.34-3.18-1.62-4.99
				c-0.31-2.02-1.37-3.95-2.29-5.83c-0.53-1.08-0.77-2.04-0.16-3.08c0.44-0.73,0.03-1.42-0.29-1.85c-0.79-1.06-0.13-2.36-0.77-3.43
				c-0.15-0.25,0.5-0.5,0.93-0.45c0.51-0.09,0.72-0.33,0.32-0.77C15.25,81.69,14.72,81.47,14.26,81.17z"/>
			<path class="st48" d="M33.03,102.57c1.07-0.01,2.15-0.03,3.22-0.04c0.36,0.32,1.07,0.36,0.88,1.11c-0.18,0.2-0.39,0.37-0.51,0.83
				c0.3-0.42,0.39-0.76,0.6-1.03c0.11-0.65,0.6-0.65,1.09-0.64c37.43,0,74.85,0,112.28,0.01c0.67,0,1.36-0.18,2,0.17
				c-0.67,1.56-1.21,3.12-0.79,4.88c0.11,0.45-0.21,1.15-0.82,1.1c-2.18-0.21-2.61,1.5-2.65,2.85c-0.04,1.58-0.87,1.81-1.95,1.98
				c-1.48,0.23-3.12-0.09-4.05,1.6c-0.18,0.32-0.68-0.38-1.08-0.06c0.43,1.52-0.43,2.73-2,2.62c-1.49-0.1-1.79,0.57-1.43,1.83
				c0.14,0.47,0.3,0.93,0.34,1.47c-0.73-1.51-2.57-1.55-3.52-2.82c-0.34-0.46-1.28-0.43-1.7,0.55c-0.4,0.93,0.04,1.79-0.07,2.67
				c-0.29,0.37-0.73,0.24-1.11,0.35c-0.16,0.02-0.33,0.05-0.49,0.07c-0.36,0.1-0.71-0.17-1.07-0.05c-0.85-0.1-0.8-0.96-1.15-1.56
				c-0.38,0.51-0.69,0.91-0.99,1.31c-0.25,0.15-0.47,0.12-0.67-0.09c-0.16-0.72-0.76-1.21-1.08-1.86c-0.41-0.85-1.23-1.43-2.16-0.31
				c-0.27,0.32-0.73,0.71-1.19,0.44c-0.53-0.31,0.05-0.66,0.11-1c0.13-0.76-2.34-3.44-3.09-3.36c-0.56,0.06-0.77,0.47-0.77,0.95
				c0,0.55,0.1,1.09,0.17,1.72c-1.15,0.06-2.63,0.92-3.26,0.73c-2.32-0.69-3.54,0.46-5.12,1.71c-0.8,0.63-1.69,1.8-3.19,1.4
				c-0.75-0.2-1.32-0.96-2.2-0.71c-0.61,0.54-1.37,0.46-2.09,0.46c-7.11,0.01-14.23,0-21.34,0.01c-1.21,0-2.27-0.11-2.58-1.55
				c-0.18-0.36-0.17-0.75-0.22-1.14c-0.08-0.62,0.49-1.62-0.71-1.68c-0.81-0.04-2.03,1.45-1.98,2.17c0.05,0.59,0.6,1.12,0.23,1.77
				c-0.47,0.42-1.04,0.36-1.6,0.4c-3.19,0.24-6.37-0.4-9.57-0.04c-0.81,0.09-1.61-0.1-1.58-1.25c0.01-0.52-0.16-0.93-0.8-0.49
				c-0.18,0.66-0.46,1.26-0.91,1.8c-0.68-0.5-0.17-1.13-0.19-1.7c-0.01-0.27,0.1-0.63-0.24-0.71c-0.35-0.08-0.66,0.11-0.75,0.5
				c-0.04,0.16-0.01,0.34-0.06,0.5c-0.24,0.79-0.73,1.58-1.56,1.41c-0.82-0.17-0.49-1.1-0.46-1.74c0.04-0.84,0.2-1.68-0.04-2.52
				c-0.29-0.73-0.45-1.46,0.25-2.47c-1.06,0.73-1.74,1.22-1.97,2.11c-0.79-0.11-0.93,0.71-1.43,1.02c-0.81,0.49-1.54,0.99-2.31-0.04
				c-0.12-0.16-0.35-0.36-0.5-0.34c-0.79,0.09-2.07-0.12-2.9-0.54c-0.37-0.28-0.14-1.22-0.81-1.03c-0.89,0.25,0.08,0.89-0.1,1.33
				c-1.09,0.57-2.16,1.15-3.26,1.68c-0.36,0.18-0.49,0.41-0.52,0.78c-0.07,0.66-0.12,1.86-0.65,1.69c-0.89-0.28-1.66,0.39-2.43-0.03
				c-0.13-0.07-0.26-0.16-0.39-0.23c-0.02,0.05-0.04,0.11-0.06,0.16c-0.36,0.23-0.72,0.21-1.06-0.03c-0.46-1.04-1.71-1.56-1.68-2.89
				c-0.77,0.22-0.45,0.79-0.6,1.15c-0.9,0.49-1.23-0.75-1.99-0.66c-0.88,0.4-1.56,0.31-1.87-0.74c-0.06-0.2-0.2-0.5-0.35-0.54
				c-1.56-0.36-1.26-1.52-1.19-2.61c0.02-0.37,0.15-0.89-0.35-0.99c-0.51-0.09-0.48,0.5-0.68,0.8c-0.68,0.05-0.47-0.36-0.37-0.71
				c-0.01-0.62,0.02-1.24-0.05-1.85c-0.1-0.99-0.06-1.71,1.15-2.13c0.77-0.27,1.2-1.3,0.73-2.16c-0.37-0.66-0.27-1.01,0.27-1.39
				c0.27-1.03,0.53-1.99-0.75-2.68C32.76,103.99,32.9,103.19,33.03,102.57z"/>
			<path class="st48" d="M128.74,38.28l-0.09,0.09l-0.13-0.01c-0.15-0.07-0.26-0.19-0.32-0.34c0.03-1.85,0.12-1.95,1.44-1.53
				c-0.57-0.79-1.3-0.61-2.02-0.34c-0.46,0.17-0.79,0.65-1.36,0.59c-0.33-0.01-0.55-0.5-0.95-0.2c-0.73,0.43-0.81,1.4-1.53,1.84
				c-0.36-0.01-0.72-0.02-1.08-0.02c-0.13-0.1-0.21-0.24-0.24-0.4c-0.16-0.7,1.38-1.41,0-2.12c-0.05-0.02-0.1-0.09-0.16-0.05
				c-0.13,0.08,0.03,0.07,0.04,0.08c0.96,0.75,0.22,1.24-0.28,1.76c-0.37,0.32-0.77,0.58-1.28,0.6c-14.65,0.04-29.3,0.01-43.95,0.02
				c-0.74,0-1.48-0.04-2.21,0.05c-0.33,0.08-0.52,0.33-0.7,0.58c-0.13-0.08-0.27-0.16-0.4-0.24c-2.39-0.55-4.8-0.06-7.2-0.11
				c-0.34-0.01-0.68,0.04-1.01-0.06c-0.76-0.36-1.56-0.22-2.35-0.22c-14.4-0.01-28.8,0-43.21-0.03c-0.72,0-1.75,0.51-2.11-0.71
				c0.13-2.18,1.02-3.73,3.34-4.19c1.01-0.2,1.33-1.29,2.06-1.88c0.35,0.46-0.39,2.06,1.22,0.89c0.61-0.45,1.67-1.15,2.84-0.61
				c0.39,0.18,1.07-0.21,1.51-0.61c0.32-0.67,0.99-0.93,1.53-1.35c0.32-0.31,0.77-0.48,0.94-1.02c-0.48-0.37-0.78,0.09-1.14,0.25
				c-1.27-0.24-1.46-0.89-0.66-2.31c0.82-0.72,1.01-1.67,1.04-2.69c1.08-0.35,0.39-1.52,0.97-2.1c0.91-0.77,3.03-0.68,3.75,0.49
				c0.63,1.03,1.38,0.95,2.25,1.01c1.28,0.09,2.65-0.51,3.84,0.52c0.15,0.13,0.7-0.21,1.07-0.33c1.27-0.29,0.3-0.65,0.03-0.99
				c-0.75-0.37-1.72-0.06-2.43-0.81c0.89-0.35,1.61-0.47,2.59,0.01c0.96,0.48,2.45,1.05,2.57-1.1c0.02-0.4,0.44-0.77,0.68-1.15
				c2.14-0.98,6.05-0.61,7.12,0.68c-0.03-1.61,1.52-0.84,2.16-1.43c0.32-0.14,0.64-0.22,0.99-0.19c1.27,0.22,2.54,0.17,3.82,0.05
				c1.27,0.06,2.33,0.63,3.34,1.44c-0.18-0.47-0.1-0.81,0.27-1.07c0.38-0.25,0.79-0.18,1.2-0.1c1.54,0.4,1.63,2.2,2.84,2.93
				c0.22,0.13,0.31,0.51,0.53,0.62c0.6,0.3,0.92,1.57,1.62,1.02c0.58-0.47,0.47-1.55-0.19-2.28c-0.09-0.1-0.09-0.29-0.15-0.5
				c1.72,1.3,1.72,1.3,2.37-0.76c0.67-0.14,0.89,0.58,1.42,0.72c0.19,0.13,0.36,0.27,0.53,0.41c0.5,0.39,0.63,0.87,0.4,1.46
				c-1.19,0.82-1.58,1.95-1.32,3.34c0.14,0.73,0.56,1.24,1.27,1.47c0.71,0.24,1.04-0.25,1.33-0.76c0.52-0.91,1.58-0.8,2.34-1.27
				c0.28-0.18,0.62-0.28,0.88-0.7c-0.69-0.58-1.89-0.72-1.98-1.91c0.4-1.2-0.96-0.94-1.28-1.53c-0.16-0.66,0.29-0.88,0.77-1.03
				c0.66-0.2,1.11-0.66,1.55-1.14c0.35-0.27,0.64-0.62,1.13-0.64c1.6,0.47,3.27,0.2,4.89,0.47c3.04,0.46,6.09,0.14,9.14,0.18
				c0.17-0.05,0.34-0.08,0.51-0.09c1.06-0.06,2.1-0.33,3.17-0.21c0.57,1.14,1.41,0.59,2.2,0.35c7.13,0.05,14.25-0.23,21.37,0.14
				c0.93,0.05,1.92-0.42,2.77,0.32c0.89-0.25,1.95,0.99,2.72-0.31c0.42-0.52,1.01-0.48,1.59-0.47c0.88,0.24,1.97,0.14,2.19,1.4
				c-0.27,0.5-0.21,1.08-0.54,1.63c-0.58,0.95,0.19,1.78,0.83,2.37c0.66,0.61,1.54,0.92,2.4,0.18c1.2,0.39,2.21,1.26,3.47,1.45
				c0.94,0.14,1.22,0.67,1.22,1.5c-0.02,0.31-0.12,0.6-0.18,0.91c-0.01,0.9,0.97,1.36,1,2.28c0.01,0.21,0.61-0.55,0.94,0
				c2.72,1.28,5.52,2.42,7.88,4.37c-0.07,0.87,0.48,1.46,0.94,2.09c0.05,0.42,0.37,0.58,0.71,0.74c-0.35,0.84-1.09,0.4-1.62,0.4
				c-5.28,0.04-10.56,0.02-15.84,0.04C129.83,38.07,129.24,37.85,128.74,38.28z"/>
			<path class="st49" d="M105.66,121.68c0.37,0.52,0.9,0.75,1.51,0.9c1.19,0.29,0.43,1.34,0.62,2.01c0.08,0.27-0.91,0.25-1.27,0.05
				c-1.77-0.98-3.13,0.16-4.63,0.73c-0.89,0.34,0.02,0.82-0.13,1.19c-0.61-0.32-1.24-0.5-1.68-0.89c-1.69-1.5-3.24-0.47-4.57,0.4
				c-1.8,1.17-3.55,0.84-4.16-1.15c-0.15-0.48-0.39-1.01-0.77-0.38c-0.88,1.45-2.15,0.8-2.94,0.35c-0.99-0.55-1.92-0.08-2.87-0.35
				c-0.77-0.21-0.18,1.3-0.98,1.58c-0.13,0.51-0.75,0.34-0.98,0.7c-0.89,1.02-1.51,0.44-2.11-0.34c-0.08-0.15,0.01-0.29,0.03-0.43
				c-0.13,0.12-0.16,0.29-0.23,0.44c0.24,1.37-0.32,2.64-0.51,3.96c-1.75-1.23-1.81-1.21-2.94,0.58c-0.32,0.51-0.79,0.8-1-0.08
				c-0.34-1.37-2.08-1.13-2.24-0.98c-1.64,1.45-1.85-0.44-2.48-1.02c-0.5-0.45-0.38-0.6-1.23-0.21c-0.42,0.19-0.44-0.14-0.52-0.36
				c-0.22-0.6-0.8-1.04-1.24-1c-0.6,0.05-0.56,0.87-0.77,1.37c-0.21,0.51-0.09,1.14-0.7,1.76c-1.23-2.85-2.12-5.68-2.45-8.69
				c1.32-0.57,2.71-0.28,4.07-0.32c3.03-0.07,6.06,0.28,9.08-0.21c0.92,0.1,1.84,0.19,2.77,0.23c7.83,0.02,15.66,0,23.5,0.02
				C104.43,121.55,105.06,121.42,105.66,121.68z"/>
			<path class="st50" d="M119.99,14.35c0.96,0.27,1.32,0.99,1.8,1.82c0.53,0.94,1.02,1.73,0.63,2.82c-0.58,0.67-1.43,0.43-2.07,0.41
				c-7.03-0.23-14.07,0.09-21.1-0.14c-0.47-0.12-0.8-0.45-1.16-0.74c-0.62-0.5-1.36-0.87-1.75-1.6c-0.05-0.54-0.51-0.82-0.79-1.21
				c-0.09-0.22-0.1-0.44-0.05-0.67c0.6-0.64-0.27-1.47,0.26-2.13c0.32-0.05,0.64-0.11,0.96-0.16c0.77,0.17,1.26-0.28,1.73-0.77
				c-0.34-1.27,0.28-1.9,1.5-2.04c1.46-0.16,2.95,0.39,4.39-0.29c0.29-0.14,0.87,0.18,1.24,0.41c0.78,0.47,1.32,1.17,2.42,0.24
				c1.46-1.24,2.89-0.51,3.49,1.53c0.62-0.2-0.14-1.16,0.62-1.21c0.57-0.03,0.82,0.49,1.15,0.88c0.83,0.97,0.79,0.87,1.79,0.16
				c0.32-0.23,0.43-1.06,1.13-0.67c1.28,0.12,2.31,0.48,2.66,1.97C118.95,13.49,119.6,13.88,119.99,14.35z"/>
			<path class="st51" d="M83.47,19.15c-1.11-0.02-2.22-0.08-3.33-0.04c-0.66,0.02-1.19-0.14-1.64-0.62
				c-0.17,0.01-0.31-0.05-0.42-0.18c-0.16-0.19-0.27-0.4-0.35-0.62c-0.1-0.97-0.97-1.88-0.24-2.92c0.34-0.4,0.87-0.06,1.25-0.33
				c0.8-0.24,1.16-0.5,1.39-1.57c0.25-1.17,3.94-1.72,5.38-1.19c0.62,0.38,1.28-0.33,1.9,0.05c0.52,0.25,0.66,0.69,0.54,1.21
				c-0.11,0.49-0.04,0.86,0.53,0.96c0.64,0.09,1.25,0.23,1.56,0.89c0.06,0.14,0.11,0.28,0.14,0.43c0.02,0.85,0.84,0.89,1.32,1.28
				c0.81,0.62,2.19,0.83,1.7,2.38c-0.04,0.08-0.09,0.16-0.15,0.23C89.85,19.46,86.66,19.41,83.47,19.15z"/>
			<path class="st52" d="M55.8,18.83c-0.24,0.01-0.5,0-0.62,0.28c-3.18,0.38-6.36,0.37-9.54-0.04c0.07-0.64,0.1-1.25-0.78-1.35
				c-0.15-0.02-0.28-0.13-0.42-0.19c0.16-0.08,0.45-0.13,0.47-0.24c0.36-1.67,1.38-1.71,2.7-1.17c0.32,0.13,0.61-0.16,0.91-0.25
				c1.72-0.55,3.32-1.56,5.22-1.45c0.96,0.31,1.89,0.02,2.82-0.13c0.22-0.04,0,0.1,0.16-0.03c0.26-0.21-0.13-0.13-0.16-0.23
				c-0.45-0.27-1.17-0.25-1.1-1.04c0.91-0.26,1.82-0.41,2.73-0.01c0.29-0.15,0.59,0.04,0.88-0.02c0.52-0.06,1.04,0.01,1.56,0.08
				c0.53,0.28,0.86-0.57,1.43-0.25c-1.11,0.7-0.5,1.17,0.28,1.22c0.96,0.06,1.54,0.57,2.2,1.12c0.64,0.53,0.4,0.93-0.1,1.34
				c-0.74,0.06-1.5-0.6-2.23,0.04c-0.65,0.08-1.29-0.03-1.91-0.18c-0.42-0.11-0.85-0.14-1.28-0.03c-0.12,0.03-0.33,0.11-0.14,0.29
				c0.11,0.1,0.31,0.08,0.47,0.1c0.77,0.16,1.57,0.09,2.33,0.29c0.2,0.09,0.41,0.19,0.59,0.32c0.56,0.41,1.58,0.74,1.34,1.46
				c-0.23,0.67-1.23,0.53-1.96,0.41c-0.34-0.02-0.62-0.16-0.85-0.4c-0.28-0.37-0.64-0.44-1.04-0.23
				C58.48,19.19,57.14,19.06,55.8,18.83z"/>
			<path class="st53" d="M19.5,102.5c2.75-0.01,5.49-0.01,8.24-0.04c0.6-0.01,1.24,0.19,1.78-0.26c0.87,0.24,1.19,0.79,1.31,2.26
				c-0.05,0.07-0.11,0.13-0.16,0.2c-1.02-0.24-1.07,0.65-0.94,1.1c0.45,1.64-0.41,3.2-0.15,4.83c0.12,0.76-1.01,0.78-1.54,1.69
				c0.23-1.82,1.52-3.21,0.1-4.78c-0.35,0.52-0.08,1.38-0.81,1.55c-0.78,0.18-0.77-0.68-1.18-0.99c-0.21-0.16-0.27-0.47-0.63-0.48
				C22.16,107.49,20.99,104.81,19.5,102.5z"/>
			<path class="st54" d="M152.59,102.99c-38.28,0-76.55,0-114.83,0c-0.14-0.11-0.19-0.25-0.17-0.42c6.75-0.02,13.5-0.06,20.25-0.06
				c31.03-0.01,62.06,0,93.09,0c0.62,0,1.24,0.06,1.86,0.09C152.73,102.73,152.66,102.86,152.59,102.99z"/>
			<path class="st55" d="M93.19,18.9c-0.16-1.13-1.13-1.52-1.9-2.08c0.67-0.83,1.59-0.03,2.47-0.41c-0.6-0.53-1.24-0.48-1.88-0.44
				c-0.73,0.05-1.47,0.1-1.95-0.62c-0.03-0.1-0.02-0.2,0.01-0.3c0.38-1.15,1.25-0.46,1.88-0.43c1.16,0.05,0.9-0.38,0.44-0.98
				c-0.35-0.68-1.43-0.86-1.29-1.88c1.65,0.16,3.35,0.1,4.79,1.15c0.06,0.71,0.86,1.42-0.01,2.13c-0.13,0.18-0.33,0.2-0.53,0.23
				c0.1,0.33,0.47,0.28,0.65,0.49c0.42,0.16,1.32,0.02,0.56,0.91c-0.13,0.23-0.42,0.12-0.56,0.21c-0.31,0.21,0.08,0.33,0.16,0.36
				c0.7,0.27,1.26,0.87,2.07,0.89c0.52-0.05,0.68,0.28,0.73,0.71c-0.05,0.74-0.63,0.39-0.99,0.49c-0.54,0.11-1.04,0.01-1.49-0.3
				C95.31,19.05,94.23,19.36,93.19,18.9z"/>
			<path class="st56" d="M65.45,38.25c2.18,0,4.37-0.01,6.55,0.02c0.52,0.01,1.14-0.27,1.52,0.36c-2.25-0.28-4.49,0.25-6.73,0.15
				c-8.6-0.4-17.2-0.14-25.79-0.19c-7.88-0.05-15.77,0-23.65,0.01c0.04-0.13,0.07-0.26,0.11-0.38c0.42-0.25,0.89-0.14,1.33-0.14
				c15.05-0.01,30.1-0.01,45.15,0C64.45,38.07,64.98,37.93,65.45,38.25z"/>
			<path class="st57" d="M78.3,18.05c0.07,0.15,0.13,0.29,0.2,0.44c-0.07,0.57-0.54,0.59-0.95,0.69c-1.78,0.68-3.6,0.15-5.41,0.16
				c-0.29,0-0.58-0.35-0.22-0.73c1.01-0.76,0.44-1.76,0.29-2.6c-0.16-0.93,0.13-1.26,0.97-1.31c0.49-0.15,0.94,0.06,1.4,0.14
				c1.06,0.89,2.52,1.37,2.98,2.9C77.64,17.96,78.05,17.95,78.3,18.05z"/>
			<path class="st58" d="M65.45,38.25c-15.99-0.01-31.99-0.02-47.98-0.03c-0.05-0.27-0.12-0.55,0.19-0.72
				c0.59,0.69,1.38,0.39,2.08,0.39c14.59,0.02,29.19,0.01,43.78,0.02C64.16,37.91,64.89,37.65,65.45,38.25z"/>
			<path class="st59" d="M161.24,62.06c-1.14-1.83-1.5,0.06-2.13,0.5c-0.99-1.09-0.05-2.55-0.86-3.66
				c-0.26-0.36-0.01-0.87,0.54-0.67c1.29,0.48,1.53-0.6,2.05-1.27c0.62,0.24,1.42,0.29,0.42,1.22c-0.56,0.52-1.01,1.42-0.06,2.19
				C161.83,60.89,160.9,61.5,161.24,62.06z"/>
			<path class="st60" d="M105.66,121.68c-8.64,0-17.27,0-25.91,0.01c-0.04-0.68-0.82-1.34-0.08-2.06c0.07,0.08,0.19,0.16,0.21,0.25
				c0.55,2,2.16,1.49,3.54,1.49c7.4,0.01,14.81,0.01,22.21,0.01C105.64,121.49,105.64,121.58,105.66,121.68z"/>
			<path class="st61" d="M135.66,24.89c-0.54-0.79-1.59-1.1-1.9-2.1c1.02-0.39,4.77,1.06,5.13,2c0.13,0.34,0.16,0.58-0.44,0.51
				c-0.92-0.1-0.31,0.39-0.18,0.68c-0.09,1.07-0.77,0.9-1.34,0.54C136.35,26.16,135.8,25.66,135.66,24.89z"/>
			<path class="st62" d="M74.7,15.1c-0.55,0.04-1.05-0.14-1.52-0.4c0.39-0.38,1.02-0.36,1.25-1.1c0.27-0.9,1.3-1.07,2.1-1.02
				c0.93,0.06,0.36,0.92,0.48,1.42c0.01,0.06,0.2,0.07,0.31,0.11c0.31,0.13,0.59,0.28,0.36,0.69c-0.5,1.06,0.68,1.92,0.35,2.96
				c-0.33,0.2-0.58-0.01-0.64-0.27C77.04,16.04,75.96,15.47,74.7,15.1z"/>
			<path class="st63" d="M97.73,19.19c0.36-0.17,0.84,0.06,1.11-0.36c0.34,0.24,0.72,0.27,1.13,0.27c7.32,0,14.63,0,21.95,0
				c0.16,0,0.33-0.08,0.49-0.12c0.24,0.09,0.27,0.29,0.25,0.51c-8.3,0-16.6,0-24.9,0c-0.11-0.06-0.15-0.12-0.12-0.19
				C97.67,19.23,97.7,19.19,97.73,19.19z"/>
			<path class="st64" d="M14.25,49.49c-0.56,0.33-0.75,1.25-1.65,1.01c0.39-0.86,0.73-1.74,1.18-2.57c0.84-1.56-0.51-2.07-1.29-2.86
				c0.17-0.75,0.57-0.69,1.06-0.3c1.86,2.23,1.79-0.5,2.93-0.93c-0.39,1.19-0.78,2.39-1.17,3.58c0,0,0.01-0.02,0.01-0.02
				C14.74,47.99,14.85,48.93,14.25,49.49z"/>
			<path class="st65" d="M61.64,18.82c0.56,0,1.12,0,1.81,0c-0.67-0.61-1.24-1.13-1.81-1.65c0.07-0.43,0.47-0.66,0.61-1.04
				c1.21-0.91,1.21-0.91,2.18,0.32c0.41,0.8,1.17,1.26,1.82,1.84c-0.56,0.53-1.3-0.31-1.8,0.31c-0.02,0.03-0.02,0.1-0.01,0.13
				c0.02,0.05,0.06,0.09,0.1,0.13c-0.36,0.38-0.86,0.19-1.27,0.32C62.64,19.48,61.99,19.82,61.64,18.82z"/>
			<path class="st66" d="M71.92,18.61c0.14,0.86,0.72,0.46,1.16,0.39c1.5-0.23,2.98,0.01,4.46,0.18c-0.22,0.8-0.56,1.43-1.56,1.37
				c-0.36-0.02-0.64,0.17-0.62,0.6c-0.86,0.26-1.57-1.12-2.49-0.25c-0.6-0.12-1.03-0.45-1.3-1C71.57,19.44,71.35,18.92,71.92,18.61z
				"/>
			<path class="st67" d="M32.14,102.42c0.35-0.25,0.61-0.02,0.88,0.16c0.2,0.74,0.21,1.45-0.31,2.09c-0.06,0.1-0.08,0.2-0.06,0.31
				c-0.34,1,0.06,2.16-0.66,3.08c-0.56,0.37-0.14,1.68-0.97,1.46c-0.73-0.2-0.41-1.29-0.4-1.98c0.01-0.96,0.42-1.91,0.02-2.88
				c0,0-0.03,0.01-0.03,0.01c0.63-0.05,1.16-0.18,1.17-1C31.82,103.25,31.85,102.79,32.14,102.42z"/>
			<path class="st68" d="M78.15,121.69c-4.58,0.05-9.17,0.1-13.75,0.15c-0.69-0.39,0.19-1.66-0.99-1.77
				c0.28-0.68,0.84-0.86,0.89-0.04c0.12,2.09,1.66,1.45,2.56,1.24c0.78-0.19,1.34-0.1,2.09-0.04c2.65,0.2,5.36,0.52,8.01-0.16
				c0.36-0.51,0.84-0.79,1.38-0.35C78.72,121.02,78.43,121.4,78.15,121.69z"/>
			<path class="st69" d="M128.74,38.28c0.48-0.59,1.15-0.37,1.74-0.37c5.19-0.02,10.38-0.01,15.57-0.03c0.6,0,1.25,0.2,1.79-0.26
				c0.39,0.24,0.4,0.59,0.27,0.98c-0.63-0.4-1.33-0.23-2-0.23C140.32,38.33,134.53,38.31,128.74,38.28z"/>
			<path class="st70" d="M135.66,24.89c0.93,0.23,1.08,2.31,2.61,1.09c1.57,1.2-0.1,1.45-0.6,2.04c-0.52-0.11-1.1-0.12-1.39-0.7
				c0.01-0.97-0.73-0.99-1.4-1.35c-1.01-0.53-2.32-0.59-3.01-1.69c0.38-0.56,0.65-0.38,1.03,0.06
				C133.66,25.22,134.6,25.41,135.66,24.89z"/>
			<path class="st71" d="M119.99,14.35c-0.96-0.22-1.46-0.65-1.61-1.79c-0.12-1-1.3-1.26-2.21-1.56c0.86-0.03,1.8-0.5,2.33,0.74
				c0.25,0.58,0.82,0.17,1.19,0c0.75-0.34,0.95,0.17,1.29,0.65c0.62,0.89-0.37,0.77-0.6,0.87C119.75,13.52,119.87,13.9,119.99,14.35
				z"/>
			<path class="st72" d="M128.9,18.19c0.11-0.68,0.02-1.5,0.38-1.99c0.27-0.38,1.09-0.09,1.51,0.32c0.72,0.71,0.38,2.15-0.59,2.69
				C129.28,19.48,128.81,19.2,128.9,18.19z"/>
			<path class="st73" d="M45.64,19.07c3.18,0.01,6.36,0.03,9.54,0.04c-0.56,0.7-1.41,0.12-2.06,0.47c-0.16,0.72,0.73,0.73,0.91,1.38
				c-0.64,0.42-1.36,0.09-1.53-0.35c-0.57-1.46-1.73-1.15-2.81-1.15c-1.35-0.01-2.7,0.02-4.05,0.03
				C45.64,19.35,45.64,19.21,45.64,19.07z"/>
			<path class="st74" d="M126.82,14.81c-1.33,0.74-0.92,1.44,0.23,2.32c-1.25-0.13-2.6-1.57-2.9,0.62
				c-0.01,0.07-0.63,0.15-0.91,0.06c-0.39-0.12-0.15-0.41-0.05-0.67c0.28-0.73,1.92-0.69,1.13-2.01
				C125.15,15.03,125.98,14.92,126.82,14.81z"/>
			<path class="st75" d="M90.97,11.76c0.48,0.51,1.07,0.93,1.25,1.66c-1.13,0.56-2.4,0.2-3.56,0.53c-0.62-0.97-0.49-1.42,0.66-2.35
				C89.86,11.7,90.45,11.36,90.97,11.76z"/>
			<path class="st76" d="M57.48,117.25c0.15-0.34,0.08-0.66-0.1-0.96c-0.14-0.23-0.28-0.47-0.51-0.85c0.69-0.1,1.77,0.77,1.79-0.69
				c0-0.2,0.65-0.2,0.9,0c0.41,0.32,0.47,0.95,0.09,1.17c-0.81,0.47-0.28,1.14-0.45,1.69C58.77,116.82,58.14,116.94,57.48,117.25z"
				/>
			<path class="st59" d="M160.82,55.94c-0.08-0.44,0.12-1.16-0.8-0.76c-0.43,0.19-1.01,0.59-1.22-0.19
				c-0.12-0.45-0.13-1.27,0.12-1.42c0.58-0.36,0.95,0.28,1.31,0.7c0.04,0.05,0.19,0.02,0.29,0.02c0.47-0.45,0.04-0.82-0.12-1.2
				c-0.15-0.36-0.47-0.8,0.09-0.96c0.52-0.16,0.25,0.67,0.68,0.76C160.95,53.89,161.46,54.98,160.82,55.94z"/>
			<path class="st77" d="M29.29,26.65c0.02,0.73-0.85,1.71,0.59,2.02c0.96,0.16,0.97,0.2,0.45,1.41c-0.57,0.33-1.15,0.67-1.72,1
				c-0.05-1.05-0.07-2.1-0.18-3.14C28.35,27.23,28.84,26.98,29.29,26.65z"/>
			<path class="st78" d="M89.32,11.6c0.26,0.88-1.12,1.2-0.72,2.12c0.19,0.33-0.07,0.45-0.28,0.59c-0.82-0.19-1.58-0.44-0.74-1.44
				c0.31-0.37,0.12-0.58-0.09-0.84c-0.18-0.67,0.77-0.84,0.66-1.48C89.43,9.9,88.71,11.48,89.32,11.6z"/>
			<path class="st79" d="M138.31,30.43c-0.77-0.04-0.56,0.7-1.08,1.51c0.14-1.81-1.38-2.53-1.31-3.95c0.83-0.44,1.23,0.2,1.69,0.67
				C137.43,29.42,138.33,29.75,138.31,30.43z"/>
			<path class="st80" d="M13.55,44.78c-0.4-0.07-0.88-0.4-1.06,0.3c-0.22-2.29-1.78-4.2-1.85-6.55
				C11.55,40.65,12.13,42.91,13.55,44.78z"/>
			<path class="st81" d="M128.9,18.19c0.22,0.6,0.66,0.94,1.29,1.02c0.77,1.58-0.82,0.44-1.03,0.89c-0.41-0.83-1.4-0.6-2-1.08
				c-0.18-0.34-0.02-0.6,0.19-0.85C127.88,17.75,128.39,18.12,128.9,18.19z"/>
			<path class="st82" d="M127.36,18.17c0.12,0.32,0,0.6-0.19,0.85c-0.59,0.05-1.18,0.1-1.78,0.16c-0.36-0.4-1.01-0.81-0.45-1.38
				c0.47-0.48,1.16-0.72,1.67,0.12C126.77,18.19,127.07,18.21,127.36,18.17z"/>
			<path class="st83" d="M82.79,126.84c-0.08-0.81,0.76-0.32,0.98-0.7c0.12,1.57,0.56,3.2-0.77,4.66c-0.48-1.32,0.11-2.4,0.27-3.5
				C83.36,126.64,83.08,126.86,82.79,126.84z"/>
			<path class="st84" d="M88.15,10.54c1.31,1.17-0.59,0.92-0.66,1.48c-0.66-0.11-1.41,0.28-1.98-0.34c1.28-0.08,0.98-0.66,0.31-1.37
				C86.68,10.19,87.38,10.84,88.15,10.54z"/>
			<path class="st85" d="M49.43,117.66c-0.2-0.55-0.85-0.17-1.2-0.62c0.42-0.49,0.89-1,0.99-1.8c0.87,0.57,1.82,0.92,1.12,2.11
				C50.04,117.46,49.74,117.56,49.43,117.66z"/>
			<path class="st86" d="M157.71,75.05c-0.78-0.13-1.29-0.61-1.67-1.27c1.18-1.12,2.02-0.26,2.88,0.48
				C158.75,74.89,158.05,74.68,157.71,75.05z"/>
			<path class="st87" d="M87.19,129.87c0.18-0.39,0.24-0.67,0.42-0.84c0.41-0.41,0.43-1.25,1.28-1.17c0.26,0.03,0.47,0.19,0.34,0.43
				c-0.32,0.56-0.43,1.32-1.23,1.49C87.79,129.82,87.58,129.83,87.19,129.87z"/>
			<path class="st88" d="M56.93,13.79c0.61-0.08,1.04,0.14,1.4,0.85c-1.64,0.18-3.12,0.16-4.59-0.22c0.54-0.19,1.08-0.34,1.62-0.03
				C55.77,13.9,56.36,13.87,56.93,13.79z"/>
			<path class="st89" d="M161.87,48.51c-0.01-0.24-0.02-0.49-0.03-0.73c0.45-0.02,0.42-0.43,0.55-0.7c0.11-0.24-0.42-0.69,0.21-0.74
				c0.45-0.04,0.9,0.49,0.8,0.66C163.05,47.61,163.26,48.92,161.87,48.51z"/>
			<path class="st90" d="M162.23,67.51c0.25,0,0.49-0.01,0.74-0.01c0.67-1.03,0.73,0.11,1.04,0.3c0.65,0.41-0.24,0.86,0.01,1.29
				c-0.51,0.28-0.66-0.12-0.88-0.44C162.86,68.26,162.53,67.89,162.23,67.51z"/>
			<path class="st91" d="M31.29,21.86c0.06,0.44,0.15,0.88,0.18,1.33c0.07,0.92-0.15,1.43-1.15,0.77
				C30.17,23.04,30.49,22.34,31.29,21.86z"/>
			<path class="st92" d="M88.85,127.44c-1.06-0.04-0.86-1.16-1.45-1.56c0.31-0.13,0.71-0.44,0.9-0.34
				C89.08,125.95,88.95,126.71,88.85,127.44z"/>
			<path class="st93" d="M95.28,130.38c0.25,0.82,0.02,1.44-0.72,1.84c-0.23,0.13-0.42-0.05-0.47-0.3
				C93.9,130.97,94.5,130.62,95.28,130.38z"/>
			<path class="st94" d="M42.23,22.55c0.06,0,0.11-0.02,0.17-0.01c0.66,0.05,1.65,0.09,1.44,0.92c-0.23,0.95-1.06,0.26-1.64,0.09
				C42.21,23.21,42.22,22.88,42.23,22.55z"/>
			<path class="st95" d="M68.5,129.08c0.88,0.72,1.48,1.55,1.22,2.91C68.94,131.07,68.8,130.04,68.5,129.08z"/>
			<path class="st96" d="M13.62,73.66c0.75,0.46,0.8,1.44,0.5,1.85c-0.37,0.51-1.26,0.39-1.89-0.06
				C13.21,75.26,13.56,74.57,13.62,73.66z"/>
			<path class="st97" d="M41.05,121.68c0.35,0.01,0.71,0.02,1.06,0.03c0.21,0.72,0.19,1.39-0.3,2.07
				C41.22,123.14,41.09,122.42,41.05,121.68z"/>
			<path class="st98" d="M36.77,119.29c1.07-1,1.31,0.5,1.99,0.66C37.73,120.84,37.26,120.04,36.77,119.29z"/>
			<path class="st99" d="M155.48,93.76c0.44,1.26,0.77,2.1,0.05,2.95C155.61,95.86,154.68,95.09,155.48,93.76z"/>
			<path class="st100" d="M130.22,122.02c0.38-0.48,0.73-0.33,1.07,0.05c0.61,0.88,0.02,1.25-0.7,1.68
				C130.14,123.19,130.79,122.46,130.22,122.02z"/>
			<path class="st101" d="M147.13,36.89c-1.19-0.3-1.62-0.94-0.94-2.09C146.73,35.4,147.33,35.96,147.13,36.89z"/>
			<path class="st102" d="M56.93,13.79c-0.37,0.58-0.92,0.71-1.57,0.61c0.23-0.46-0.65-0.99,0.1-1.41
				C55.79,13.54,56.56,13.3,56.93,13.79z"/>
			<path class="st103" d="M137.62,28.67c-0.72,0.16-1.03-0.7-1.69-0.67c0.12-0.22,0.24-0.44,0.35-0.67c0.36,0.45,1.34-0.36,1.39,0.7
				C137.66,28.24,137.64,28.46,137.62,28.67z"/>
			<path class="st104" d="M154.31,45.71c0.04,0.63-0.33,1.23-0.77,1.37c-0.36,0.12-0.52-0.57-0.57-1.02
				c-0.06-0.56,0.69-0.25,0.74-0.69C153.91,45.49,154.11,45.6,154.31,45.71z"/>
			<path class="st105" d="M137.85,124.04c-0.14-1.06-0.46-1.62,0.07-2.16c0.18-0.18,0.45-0.24,0.55,0.02
				C138.71,122.53,138.4,123.05,137.85,124.04z"/>
			<path class="st106" d="M131.78,122c0.27-0.41,0.74-0.22,1.11-0.35c0.76,0.37,0.9,1.05,0.91,1.84
				C133.43,122.54,132.6,122.28,131.78,122z"/>
			<path class="st107" d="M127.41,121.68c0.22,0.03,0.45,0.06,0.67,0.09c0.02,0.75-0.67,1.04-1.01,1.59
				C126.9,122.72,126.99,122.17,127.41,121.68z"/>
			<path class="st108" d="M12.13,86.07c1.04,0.56,1.48,1.21,1.94,2.33C13.07,87.71,12.41,87.24,12.13,86.07z"/>
			<path class="st109" d="M0,70.15c0.16-0.29,0.18-0.37,0.21-0.37c0.67-0.11,1.12-0.88,1.9-0.66c0.06,0.02,0.14,0.25,0.12,0.28
				C1.63,69.92,0.89,70.01,0,70.15z"/>
			<path class="st110" d="M131.5,14.37c-1.1,0.61-1.45-0.5-2.31-0.44c0.06-0.16,0.13-0.32,0.19-0.49
				C130.09,13.75,130.8,14.06,131.5,14.37z"/>
			<path class="st86" d="M159.32,97.72c-0.62-0.61-0.83-1.37-1.06-2.38C159.46,95.97,159.02,97.01,159.32,97.72z"/>
			<path class="st111" d="M31.96,114.5c0.12,0.24,0.25,0.48,0.37,0.71c-0.06,0.55-0.18,1.07-0.84,1.39
				C31.29,115.76,31.6,115.12,31.96,114.5z"/>
			<path class="st112" d="M98.45,11.98c-0.09,1.35-0.75,1.41-1.73,0.77C97.37,12.66,97.71,11.88,98.45,11.98z"/>
			<path class="st88" d="M60.64,13.02c-0.5,0.37-1.04,0.5-1.64,0.29c0.02-0.91,0.61-0.99,1.31-0.9
				C60.42,12.62,60.53,12.82,60.64,13.02z"/>
			<path class="st113" d="M60.31,12.42c-0.54,0.15-1.1,0.27-1.31,0.9c-0.27-0.11-0.53-0.23-0.8-0.34c0.69-0.5,1.39-0.99,2.31-0.92
				c0.01,0,0.02,0.11,0,0.14C60.45,12.28,60.38,12.34,60.31,12.42z"/>
			<path class="st114" d="M80.48,126.5c0.05-0.49-0.12-1.18,0.74-1c0.25,0.05,0.63,0.31,0.52,0.74c-0.18,0.75-0.77-0.08-1.06,0.26
				c0,0-0.1,0.04-0.1,0.04L80.48,126.5z"/>
			<path class="st115" d="M77.67,14.78c-0.12-0.23-0.24-0.46-0.36-0.69c0.71-0.84,0.98,0.1,1.42,0.35
				C78.63,15.35,78.14,15.03,77.67,14.78z"/>
			<path class="st116" d="M164.31,49.83c-0.55-0.09-0.57-0.45-0.47-0.87c0.05-0.21,0.07-0.47,0.37-0.44
				c0.52,0.06,0.46,0.57,0.58,0.89C164.93,49.78,164.56,49.8,164.31,49.83z"/>
			<path class="st117" d="M103.39,67.23c-0.14,0.41-0.28,0.82-0.42,1.23c-0.18,0.42-0.86,0.5-0.74,1.12
				c-0.32,1.02,0.55,1.79,0.56,2.74c2.02,3.57,4.04,7.14,6.18,10.92c-4.61,0-8.96,0.04-13.31-0.03c-1.04-0.02-1.65,0.27-2.14,1.2
				c-1.25,2.33-2.59,4.62-3.89,6.92c0.48,0.85-0.59,0.97-0.72,1.54c-0.7,0.36-0.46,1.44-1.3,1.69c-0.64-0.5-1.6-0.35-2.14-1.05
				c-1.74-2.98-3.52-5.93-5.19-8.95c-0.57-1.03-1.24-1.37-2.39-1.35c-4.3,0.07-8.6,0.03-13.14,0.03c1.59-2.77,3.08-5.37,4.56-7.98
				c0.92-1.62,2.52-3.25,2.5-4.87c-0.02-1.63-1.65-3.24-2.58-4.85c-1.3-2.25-2.6-4.5-3.9-6.75c-0.26-0.19-0.56-0.35-0.71-0.66
				c-0.26-0.53-0.39-1.12,0.15-1.48c0.62-0.42,0.79,0.33,1.14,0.59c0.52,0.51,1.13-0.1,1.68,0.13c0.17,0.11,0.33,0.22,0.5,0.33
				c-0.59,0.93,0.34,0.77,0.72,0.99c0.9,0.32,1.69-0.35,2.56-0.3c1.49,0.29,2.89,0.17,4.1-0.87c1.04,0.04,2.08,0.04,3.12,0.12
				c0.67,0.05,0.89-0.22,0.8-0.83c-0.04-0.35,0.14-0.43,0.44-0.37c0.71-0.19,0.84-0.88,1.14-1.39c1.89-3.21,3.73-6.45,5.59-9.68
				c0.05-0.08,0.16-0.14,0.39-0.33c1.59,2.74,3.45,5.34,4.67,8.2c1.54,3.64,3.86,4.95,7.77,4.47c3.06-0.38,6.21-0.08,9.57-0.08
				c-1.65,2.96-3.2,5.75-4.76,8.54C103.64,66.3,103.29,66.6,103.39,67.23z"/>
			<path class="st118" d="M75.45,57.51c-0.43,1.43-1.57,1.55-2.79,1.46c-0.48-0.04-0.96-0.17-1.44-0.27
				c-0.91-0.75-1.55,0.71-2.42,0.3c-0.62-0.13-1.23-0.26-1.84-0.39c0.11-0.76,0.93-0.42,1.12-0.93c0.63,0.07,1.07-0.67,1.44-0.63
				c1.17,0.13,1.3-0.54,1.39-1.36c0.55,0.59,0.43-1.5,1.22-0.29c0.17,0.27,0.82,0.12,1.06-0.17c0.79-0.97,1.44-0.83,2.34-0.05
				C76.56,56.09,75.68,56.74,75.45,57.51z"/>
			<path class="st56" d="M73.93,38.87c0-0.21-0.01-0.42-0.01-0.62c0.3-0.23,0.65-0.17,0.98-0.17c15.4,0.02,30.79-0.04,46.19,0.02
				c0.24,0.11,0.31,0.29,0.21,0.53c-13.38-0.01-26.75-0.05-40.13-0.02C78.76,38.61,76.32,38.24,73.93,38.87z"/>
			<path class="st119" d="M102.78,72.31c-0.55-0.84-1.56-1.56-0.71-2.76c0.28-1.41,1.24-0.95,1.98-0.61c0.6,0.27,1.14,0.67,1.8,0.81
				c0.8,0.14,1.66,0.14,2.17,0.93c-0.12,0.21-0.25,0.41-0.37,0.62c-0.56,0.21-1.47-0.53-1.68,0.62
				C104.98,72.64,103.82,71.96,102.78,72.31z"/>
			<path class="st120" d="M108.02,70.69c-0.8-0.18-1.6-0.35-2.4-0.53c-0.64-0.98,0.7-1.57,0.5-2.46c0.18-0.32,0.48-0.44,0.83-0.46
				c1.36,0.03,2.21,0.72,2.55,2.03c0.18,0.7,0.16,1.27-0.82,1.14C108.46,70.5,108.24,70.59,108.02,70.69z"/>
			<path class="st121" d="M65.84,57.64c-0.67,0.16-0.82-0.23-0.8-0.91c-0.52,0.88,0.04,1.44,0.29,2.05
				c-1.18,0.55-2.12-0.01-3.27-0.82c1.46,0.14,1.77-0.6,1.64-1.67c0.07-0.94,0.1-0.95,1.7-0.65c0.31,0.1,0.62,0.21,0.9,0.39
				c0.38,0.24,0.73,0.56,0.6,1.06C66.76,57.61,66.31,57.67,65.84,57.64z"/>
			<path class="st122" d="M106.32,68.01c0.67,1.01-0.95,1.28-0.7,2.15c-0.64-0.3-1.45-0.05-1.93-0.97
				c-0.27-0.51-1.22-0.44-1.62,0.37c-0.71-1.2,0.47-0.84,0.9-1.09c0.79-0.11,1.4-0.88,2.3-0.64
				C105.65,67.68,106.05,67.49,106.32,68.01z"/>
			<path class="st123" d="M65.84,57.64c1.88-1.03,0.03-1.2-0.39-1.71c0.17-0.68,0.64-0.99,1.32-1c0.11,0,0.22-0.01,0.34-0.01
				c0.58,0.03,1.19,0.01,1.42,0.72c0.1,0.51,0.67,0.21,0.91,0.52c-0.45,0.67-1.29,0.73-1.86,1.2C67.04,57.74,66.56,58.4,65.84,57.64
				z"/>
			<path class="st124" d="M108.68,70.41c0.39-0.19,0.94-0.39,0.53-0.91c-0.43-0.54,0.03-1.62-0.99-1.71
				c-0.46-0.04-0.84-0.15-1.22-0.36c0-0.77,0.7-0.31,1-0.56c0.11-0.03,0.22-0.05,0.32-0.07c0.51-0.04,1.01-0.04,1.43,0.3l0.04,0.1
				c0,0-0.09,0.06-0.09,0.06c0.4,1,0.84,1.96,0.13,3.06c-0.25,0.38,0.36,0.17,0.55,0.28C109.78,70.88,109.09,71.82,108.68,70.41z"/>
			<path class="st125" d="M58.23,42.66c0.53,0.3-0.04,1.9,1.49,1.16c0.42-0.2,0.05,0.97,0.59,1.39c0.23,0.18-0.24,0.51-0.63,0.35
				c-0.19-0.08-0.26,0-0.38,0.14c-0.8,0.99-1.59,1.57-2.17-0.18c1.23,0.3,1.39-0.33,1.08-1.49c-0.1-0.37-0.65-0.94,0.05-1.34
				L58.23,42.66z"/>
			<path class="st126" d="M66.77,54.93c-0.44,0.33-0.88,0.67-1.32,1c-0.53,0.39-1.32-0.49-1.75,0.36c-0.34-0.16-0.69-0.32-1.13-0.53
				c1.4-0.97,2.96-1.28,4.51-2.05C66.93,54.3,66.85,54.61,66.77,54.93z"/>
			<path class="st127" d="M121.3,38.63c-0.03-0.13-0.07-0.27-0.1-0.4c-0.09-0.13-0.09-0.26,0-0.38c0.22-0.22,0.45-0.44,0.67-0.67
				c0.8-0.29,0.51,0.55,0.81,0.78c0,0.13,0.01,0.26,0.01,0.4c-0.75,0.85-0.57,1.93-0.7,2.94C120.85,40.62,120.58,39.56,121.3,38.63z
				"/>
			<path class="st128" d="M20.48,79.39c0.11-0.32-0.42-0.81,0.24-0.97c0.33-0.08,0.71-0.07,0.86,0.33c0.57,1.49,1.13,2.98,1.75,4.62
				c-1.56-0.39-0.74-2.13-1.93-2.51C20.74,80.59,20.82,79.86,20.48,79.39z"/>
			<path class="st129" d="M159.07,64.24c-0.62-0.06-0.63,0.44-0.47,0.96c0.06,0.2,0.79,0.21,0.19,0.61
				c-0.21,0.14-0.55,0.22-0.78,0.16c-0.32-0.09-0.3-0.47-0.25-0.73c0.18-0.83,0.06-1.86,1.42-1.87c0.62-0.01,0.88,0.29,0.85,0.75
				C159.99,64.6,159.57,64.48,159.07,64.24z"/>
			<path class="st130" d="M125.77,38.9c0.79-0.21,1.2,0.68,1.92,0.67c-0.06,0.09-0.11,0.19-0.17,0.27
				c-0.43,0.61-1.02,1.52-1.66,1.19C125.15,40.67,125.48,39.65,125.77,38.9z"/>
			<path class="st131" d="M125.25,36.24c-0.16,0.66-0.34,1.32-0.16,2.01c-1.22,0.43-0.06,1.55-0.63,2.17
				c-1.04-0.41-0.26-1.43-0.68-2.05C124.09,37.54,124.21,36.57,125.25,36.24z"/>
			<path class="st132" d="M61.91,82.95c-0.86,0.23-1.6,0.61-2.31,1.01c-0.42,0.23-0.79,0.14-1.01-0.2c-0.32-0.48,0.18-0.76,0.46-0.9
				C60,82.4,60.98,82.39,61.91,82.95z"/>
			<path class="st133" d="M34.48,99.62c-0.03-0.25-0.06-0.49-0.09-0.74c0.56,0.08,0.88,0.77,1.65,0.5c0.52-0.18,0.82,0.25,0.4,0.8
				c0.27,0.38,0.32,0.75-0.04,1.1C35.16,101.42,35.23,100.05,34.48,99.62z"/>
			<path class="st134" d="M36.39,101.29c0.01-0.37,0.03-0.73,0.04-1.1c1.31-0.04,0.96,1.02,0.69,1.44c-0.5,0.79,0.41,0.6,0.47,0.94
				c0.06,0.14,0.11,0.28,0.17,0.42c-0.21,0.21-0.43,0.43-0.64,0.64l0.02,0.02c-0.07-0.56-0.92-0.49-0.9-1.12
				C36.41,102.13,36.52,101.73,36.39,101.29z"/>
			<path class="st135" d="M88.91,92.87c-0.08-0.66,0.55-0.99,0.72-1.54c0.72,0.48,1.84-1.07,1.9-0.12
				C91.57,91.95,90.17,92.87,88.91,92.87z"/>
			<path class="st136" d="M85.47,93.51c0.71,0.36,1.9-0.27,2.14,1.05c0.01,0.07-0.01,0.13-0.07,0.18c-0.41,0.26-0.85,0.23-1.3,0.15
				C85.98,94.42,84.08,94.88,85.47,93.51z"/>
			<path class="st137" d="M156.25,58.53c-0.59,0.44-0.8,1.74-1.73,1.19c-1.08-0.64-0.27-1.29,0.45-1.34
				C155.28,58.36,155.77,58.44,156.25,58.53z"/>
			<path class="st138" d="M78.37,51.14c-0.78-0.09-1.81,0.19-1.72-1.18c0.02-0.23,0.05-0.48,0.32-0.52c0.4-0.05,0.68,0.04,0.34,0.51
				c0.55,0.26,1.11,0.52,1.66,0.79C78.9,51.09,78.56,51,78.37,51.14z"/>
			<path class="st139" d="M58.26,42.69c-0.38-1.23-1.4-1.39-2.54-1.41c1.37-0.9,2.32-0.41,3.08,0.75c0.6,0.92-0.13,0.65-0.57,0.63
				C58.23,42.66,58.26,42.69,58.26,42.69z"/>
			<path class="st140" d="M108,66.88c-0.33,0.19-0.67,0.37-1,0.56c-0.27,0.13-0.71,0.07-0.68,0.57c-0.41,0.27-0.73,0-1.06-0.18
				C106.1,67.28,106.55,65.66,108,66.88z"/>
			<path class="st140" d="M109.76,67.11c-0.51,0.06-1.04,0.2-1.43-0.3c0.51-0.43-0.4-0.7-0.05-1.26
				C108.75,66.13,110.11,65.66,109.76,67.11z"/>
			<path class="st141" d="M157.26,78.97c0.54,0.69,1.03,1.32,1.55,1.98C156.84,80.54,156.84,80.54,157.26,78.97z"/>
			<path class="st142" d="M12.07,66.02c-0.18-0.48-0.41-0.89-0.49-1.32c-0.07-0.37,0.22-0.72,0.59-0.59
				c0.56,0.21,0.42,0.85,0.55,1.31C12.85,65.83,12.37,65.73,12.07,66.02z"/>
			<path class="st143" d="M14.25,49.49c-0.05-0.91,0.35-1.58,1.07-2.08c0.32,0.54-0.69,1.16,0.14,1.75
				C15.71,49.33,15.56,49.55,14.25,49.49z"/>
			<path class="st144" d="M52.4,44.08c0.25,0.15,0.7,0.24,0.46,0.56c-0.23,0.3-0.15,0.99-0.83,0.84c-0.29-0.06-0.64-0.22-0.51-0.52
				C51.66,44.57,51.95,44.21,52.4,44.08z"/>
			<path class="st145" d="M15.56,74.39c0.2,0.41,1.07,0.14,0.95,0.9c-0.04,0.28-0.27,0.57-0.58,0.45c-0.42-0.16-1.04-0.2-0.96-0.91
				C15.01,74.52,15.19,74.33,15.56,74.39z"/>
			<path class="st146" d="M154.19,81.02c0.82-0.49,1.47-0.41,2.09,0.1c0.23,0.19,0.17,0.38-0.05,0.53
				C155.3,82.24,154.9,81.35,154.19,81.02z"/>
			<path class="st147" d="M75.78,39.18c-0.38,0.87-0.6,1.52-1.44,1.37c-0.19-0.03-0.49-0.51-0.43-0.62
				C74.27,39.19,75.03,39.57,75.78,39.18z"/>
			<path class="st148" d="M79.82,56.43c-0.15,0.12-0.3,0.25-0.44,0.37c-0.79,0.65-0.93-0.28-0.85-0.52
				c0.16-0.52,0.67-1.11,1.19-1.01C80.56,55.44,79.81,56.03,79.82,56.43z"/>
			<path class="st149" d="M68.24,68.06c-0.67,0.6-1.37,1.16-2.73,1.48C66.52,68.54,67.36,68.27,68.24,68.06z"/>
			<path class="st150" d="M20.48,79.39c0.94,0.1,0.5,1.05,0.91,1.48c-0.38,0.24-0.89,1.08-0.98-0.18
				C20.39,80.26,20.46,79.82,20.48,79.39z"/>
			<path class="st126" d="M78.37,51.14c0.2-0.13,0.4-0.26,0.6-0.39c0.41-0.06,0.63-0.7,1.12-0.43c0.28,0.16,0.18,0.41,0,0.69
				C79.54,51.83,78.96,51.4,78.37,51.14z"/>
			<path class="st151" d="M103.39,67.23c-0.25-0.27-0.73-0.46-0.39-0.95c0.33-0.48,0.77-0.32,1.19-0.12
				C104.51,66.95,103.49,66.75,103.39,67.23z"/>
			<path class="st152" d="M86.23,94.88c0.39-0.42,0.83-0.46,1.3-0.15c-0.16,0.38-0.21,0.94-0.7,0.97
				C86.41,95.73,86.4,95.2,86.23,94.88z"/>
			<path class="st153" d="M152.62,79.95c0.49-0.01,0.86-0.89,1.36-0.18c0.16,0.22,0.15,0.54-0.11,0.73
				C153.12,81.07,153.06,80.13,152.62,79.95z"/>
			<path class="st154" d="M69.07,84.03c0.69-0.07,1.42-0.41,2.13,0.25C70.32,84.72,69.72,84.09,69.07,84.03z"/>
			<path class="st155" d="M54.67,45.26c-0.14,0.26-0.33,0.48-0.65,0.42c-0.35-0.06-0.63-0.25-0.58-0.66
				c0.04-0.3,0.17-0.52,0.54-0.39C54.31,44.74,54.59,44.89,54.67,45.26z"/>
			<path class="st156" d="M78.15,121.69c0.44-1.81-0.79-0.43-1.2-0.63c-1.26-1.79-1.21-2,0.61-3.12c0.65-0.4,1.04-1.78,1.88-1.14
				c0.77,0.59,0.53,1.84,0.23,2.83c0.03,0.69,0.05,1.37,0.08,2.06C79.1,122.52,79.1,122.52,78.15,121.69z"/>
			<path class="st157" d="M130.06,119.33c-0.57,0.02-0.85-0.32-0.63-0.61c0.51-0.69-0.38-2.09,0.91-2.2
				c0.84-0.07,1.02,1.07,1.05,1.68C131.4,118.86,130.53,119.07,130.06,119.33z"/>
			<path class="st158" d="M86.62,118.42c-0.23,0.67-0.27,1.67-1.11,1.81c-0.55,0.09-0.76-0.84-0.69-1.31
				c0.1-0.71,0.55-1.47,1.3-1.58C86.74,117.24,86.53,117.96,86.62,118.42z"/>
			<path class="st159" d="M44.25,107.17c1.36,1.26,0.16,2.29,0.1,3.34C43.83,109.48,43.81,108.44,44.25,107.17z"/>
			<path class="st160" d="M57.67,113.46c-0.14,0.31,0.57,1.02-0.32,0.91c-0.67-0.08-0.56-0.88-0.68-1.38
				c-0.12-0.52,0.49-0.71,0.75-0.67C58.3,112.46,57.68,113.05,57.67,113.46z"/>
			<path class="st161" d="M41.12,110.01c-0.39-0.22-0.82-0.45-0.81-0.97c0.01-0.38,0.34-0.59,0.7-0.57c0.56,0.03,0.72,0.5,0.76,0.94
				C41.81,109.81,41.53,110.01,41.12,110.01z"/>
			<path class="st162" d="M37.12,103.63c-0.46,0.41,1.18,1.47-0.45,1.5c-0.34,0-0.85-0.08-0.8-0.64c0.07-0.78,0.79-0.64,1.27-0.83
				C37.14,103.65,37.12,103.63,37.12,103.63z"/>
			<path class="st163" d="M70.35,119.23c0.09,0.54,0.82,1.02,0.28,1.52c-0.4,0.37-0.92-0.1-1.43-0.17
				C69.33,119.8,70.33,119.96,70.35,119.23z"/>
			<path class="st164" d="M59.28,111.82c-0.49-0.07-1.24,0.36-1.3-0.57c-0.03-0.41,0.46-0.49,0.77-0.5c0.99-0.05,0.23,0.77,0.5,1.09
				L59.28,111.82z"/>
			<path class="st165" d="M59.26,111.84c0.53,0,1.18-0.19,1.25,0.65c0.03,0.3-0.23,0.58-0.5,0.56c-0.79-0.05-0.7-0.69-0.74-1.23
				C59.28,111.82,59.26,111.84,59.26,111.84z"/>
			<path class="st166" d="M40.77,104.95c0.05,0.29-0.07,0.5-0.3,0.53c-0.47,0.07-0.69-0.32-0.84-0.66
				c-0.13-0.28,0.07-0.62,0.36-0.61C40.41,104.23,40.62,104.61,40.77,104.95z"/>
			<path class="st167" d="M68.25,107.96c0.75,0.49,0.63,1.04,0.34,1.75C67.88,109.19,68.03,108.63,68.25,107.96z"/>
			<path class="st168" d="M114.95,117.32c0.46-0.44,0.84-0.71,1.37-0.58c0.06,0.02,0.15,0.33,0.09,0.43
				C116.09,117.69,115.66,117.78,114.95,117.32z"/>
			<path class="st169" d="M72.88,20.9c0.06-0.53-0.09-1.13,0.9-0.84c0.7,0.21,1.04,0.76,1.59,1.08c0.63,0.07,1.4-0.24,1.83,0.44
				c0.32,0.5-0.08,0.8-0.51,1.01c-0.78,0.76,0.05,1.09,0.46,1.32c0.8,0.45,0.95,0.96,0.53,1.72c-0.86,0.67-2.24,0.44-2.69,1.95
				c-0.23,0.78-2.33,0.12-2.68-0.95c-0.39-1.19-0.17-2.44-0.09-3.67c0.07-1.02,1.38,0.39,1.41-0.71c1.08-0.89-0.02-0.8-0.45-1.01
				C73.08,21.13,72.98,21.02,72.88,20.9z"/>
			<path class="st58" d="M121.21,37.84c0,0.13,0,0.26,0,0.38c-15.76,0.01-31.52,0.01-47.28,0.02c0.5-0.56,1.16-0.33,1.76-0.33
				c14.61-0.01,29.22-0.01,43.83-0.02C120.08,37.89,120.64,37.86,121.21,37.84z"/>
			<path class="st170" d="M128.39,37.93c-1.08,0-1.68-0.73-2.27-1.48c1.25-0.95,2.5-1.43,3.92-0.27c0.3,0.25,0.7,0.36,0.74,0.81
				c0.01,0.14-0.09,0.38-0.18,0.41c-0.47,0.13-0.65-0.3-0.96-0.52C127.9,35.64,128.87,37.65,128.39,37.93z"/>
			<path class="st171" d="M62.28,29.22c-0.7-0.06-1.48,0.45-2.04-0.36c-0.16-0.23-0.78-0.25-0.4-0.69c0.22-0.25,0.8-0.67,0.98-0.24
				c0.55,1.31,1.24,0.46,1.9,0.26c0.16-0.05,0.32-0.11,0.49-0.14c0.53-0.09,1.19-0.09,1.29,0.48c0.12,0.7-0.69,0.56-1.1,0.72
				C63.08,29.38,62.66,29,62.28,29.22z"/>
			<path class="st172" d="M117.22,23.24c-0.11-0.72-0.49-1.21-1.33-1.28c1.66-1.26,2.58-0.52,3.27,2.51c-1,0.11-1.08-1.22-1.96-1.24
				L117.22,23.24z"/>
			<path class="st173" d="M77.68,25.64c0.03-1.52-1.56-1.74-2.19-2.77c0.32-0.43,0.8-0.21,1.2-0.28c0.24,0.68,0.71,1.13,1.42,1.3
				c0.37,0.09,0.99-0.26,1.03,0.45c0.04,0.65-0.35,1.01-1.02,1.06C77.97,25.43,77.83,25.56,77.68,25.64z"/>
			<path class="st174" d="M83.47,19.15c3.19-0.01,6.38-0.02,9.57-0.02c-0.14,0.17-0.29,0.48-0.43,0.47
				c-2.91-0.03-5.83-0.1-8.74-0.18C83.74,19.42,83.61,19.24,83.47,19.15z"/>
			<path class="st175" d="M61.64,18.82c0.44,0.58,1.11,0.17,1.64,0.37c-0.3,0.93,1.31,0.48,0.92,1.65
				c-1.38-0.64-2.75-1.29-4.13-1.93c-0.18-0.18-0.2-0.4,0.02-0.52c0.3-0.16,0.62-0.15,0.82,0.2C61.15,18.67,61.4,18.75,61.64,18.82z
				"/>
			<path class="st176" d="M81.25,26.4c1.01-0.12,1.76,0.25,2.47,0.7c0.28,0.18,0.92,0.2,0.6,0.76c-0.26,0.45-0.77,0.45-1.16,0.13
				C82.56,27.51,81.77,27.25,81.25,26.4z"/>
			<path class="st177" d="M122.68,37.96c-0.27-0.26-0.54-0.52-0.81-0.79c0.18-0.34,1.08-0.52,0.22-1.1
				c-0.4-0.27-0.55-0.69-0.39-1.18C123.75,36.55,123.75,36.55,122.68,37.96z"/>
			<path class="st65" d="M60.91,18.59c-0.8-0.19-0.8-0.19-0.84,0.32c-1.43,0.31-2.86,0.43-4.28-0.08c1.38-0.07,2.79,0.16,4.03-0.8
				C60.14,17.8,61.24,17.09,60.91,18.59z"/>
			<path class="st178" d="M30.33,30.09c-0.69-0.3,0.69-1.26-0.45-1.41c0.14-0.62,0.59-0.75,1.14-0.7c0.32,0.03,0.72-0.09,0.92,0.24
				c0.27,0.45-0.17,0.73-0.42,0.98C31.17,29.54,30.73,29.79,30.33,30.09z"/>
			<path class="st179" d="M119.16,20.48c0.61-0.16,1.06-0.08,1.35,0.25c0.41,0.46,0.57,0.49,0.66-0.18
				c0.07-0.53,0.46-0.37,0.75-0.21c0.18,0.1,0.32,0.28,0.48,0.42c-0.19,0.2-0.34,0.51-0.57,0.6
				C120.79,21.74,119.85,21.7,119.16,20.48z"/>
			<path class="st85" d="M32,33.29c-0.39,0.76-0.82,0.98-1.24,0.97c-0.58-0.02-0.86-0.4-0.76-1.03c0.07-0.46,0.11-0.98,0.68-0.97
				C31.47,32.29,30.34,34.1,32,33.29z"/>
			<path class="st180" d="M136.22,31.5c-1.21-0.86-1.6-1.83-2.01-2.97C135.48,29.24,135.86,29.79,136.22,31.5z"/>
			<path class="st181" d="M117.2,23.22c-0.32,0.98,0.65,1.18,1.05,1.72c0.23,0.32,0.55,0.66,0.15,1.03
				c-0.46,0.43-0.81-0.04-0.91-0.33c-0.27-0.76-1.7-1.44-0.28-2.4C117.22,23.24,117.2,23.22,117.2,23.22z"/>
			<path class="st182" d="M56.62,28.43c-0.39,0.12-0.46,0.16-0.49,0.15c-0.74-0.46-1.52-0.9-1.57-1.91
				c-0.01-0.11,0.23-0.34,0.3-0.32C55.86,26.66,55.85,27.74,56.62,28.43z"/>
			<path class="st183" d="M78.84,27.66c1.04-0.28,1.85,0.25,2.66,0.76C80.52,28.53,79.66,28.2,78.84,27.66z"/>
			<path class="st184" d="M61.38,22.81c1.06-0.28,1.6-0.07,2.04,0.38c0.06,0.06-0.11,0.52-0.25,0.56
				C62.44,23.96,62.12,23.36,61.38,22.81z"/>
			<path class="st185" d="M125.41,24.57c0.7-0.87,1.27-0.7,1.8-0.19c0.12,0.12,0.17,0.54,0.12,0.57
				C126.61,25.31,126.19,24.61,125.41,24.57z"/>
			<path class="st186" d="M97.73,19.19c0.02,0.1,0.03,0.2,0.03,0.3c-0.3,0.26,0.32,0.93-0.31,0.93c-0.84,0-1.01-0.71-1.09-1.41
				C96.86,18.75,97.27,19.16,97.73,19.19z"/>
			<path class="st187" d="M79.56,33.56c-0.1,0.37-0.28,0.46-0.52,0.39c-0.32-0.1-0.63-0.26-0.66-0.65c-0.02-0.24,0.15-0.5,0.38-0.39
				C79.08,33.07,79.33,33.37,79.56,33.56z"/>
			<path class="st66" d="M73.18,21.25c0.95-0.28,1.19,0.48,1.66,1c-0.49,0.36-0.83-0.11-1.2,0.01C73.98,21.7,73.51,21.5,73.18,21.25
				z"/>
			<path class="st188" d="M98.12,18.13c-0.76,0.45-1.36-0.21-2.04-0.3c-0.71-0.09-1.22-0.58-0.96-1.24
				c0.35-0.88,0.86,0.17,1.32,0.07C97.13,17,97.59,17.6,98.12,18.13z"/>
			<path class="st189" d="M95.88,15.76c-0.05-0.01-0.11-0.03-0.16-0.03c-0.63,0.03-1.34-0.01-1.47-0.73
				c-0.11-0.66,0.3-0.69,0.78-0.3c0.2,0.16,0.48,0.23,0.72,0.34C95.79,15.28,95.83,15.52,95.88,15.76z"/>
			<path class="st190" d="M89.92,15.35c1.21,0.47,2.5-0.22,3.71,0.3c0.51,0.22,1.01,0.53,0.92,1.03c-0.12,0.63-0.84,0.49-1.28,0.41
				c-0.66-0.11-1.3-0.33-1.98-0.27c-0.46-0.21-0.92-0.42-1.38-0.62C89.23,15.9,89.69,15.63,89.92,15.35z"/>
			<path class="st191" d="M74.7,15.1c2.29-0.6,2.45,1.47,3.32,2.65c0.09,0.1,0.18,0.21,0.28,0.31c-1.1,0.34-1.1,0.34-1.32-0.88
				c-0.08-0.46-0.48-0.57-0.82-0.73C75.53,16.15,75.1,15.64,74.7,15.1z"/>
			<path class="st192" d="M60.3,15.75c-0.51,0.28-1.34,0.33-0.91,1.28c-0.22,0.02-0.45,0.08-0.67,0.06c-0.45-0.05-1-0.14-1-0.69
				c0-0.52,0.62-0.33,0.93-0.51C59.16,15.58,59.73,15.68,60.3,15.75z"/>
			<path class="st47" d="M86.06,61.4c1.34,0.03,2.7,0.19,4.03,0.04c1.65-0.18,2.51,0.51,2.92,2c-0.57,1.07,0.05,1.49,0.96,1.76
				c0.25,0.44,0.5,0.88,0.74,1.31c-0.79,1.19-0.29,1.89,0.88,2.36c0.36,0.14,0.57,0.51,0.94,0.65c0.64,0.54,0.53,1.09,0.13,1.76
				c-1.6,2.69-3.16,5.42-4.74,8.13c-3.37,0.35-6.75,0.34-10.12,0.01c-1.59-2.72-3.16-5.45-4.78-8.15c-0.37-0.62-0.35-1.1,0.01-1.69
				c1.43-2.42,2.86-4.84,4.2-7.31c0.41-0.76,1-0.78,1.65-0.85C83.94,60.86,85,60.87,86.06,61.4z"/>
			<path class="st193" d="M96.78,79.44c0.28-1.91,1.73-3.21,2.59-5.2c0.98,1.9,2.16,3.36,2.77,5.17
				C100.35,79.8,98.56,79.71,96.78,79.44z"/>
			<path class="st194" d="M102.32,61.47c-1.05,1.79-1.95,3.32-2.94,5.01c-0.84-1.45-1.57-2.77-2.37-4.05
				c-0.47-0.75-0.29-0.99,0.55-0.97C99.03,61.49,100.51,61.47,102.32,61.47z"/>
			<path class="st193" d="M71.32,61.48c1.87,0,3.37,0.02,4.87-0.01c0.92-0.02,0.92,0.32,0.51,0.99c-0.73,1.19-1.41,2.42-2.21,3.79
				C73.07,64.95,72.57,63.2,71.32,61.48z"/>
			<path class="st195" d="M84,83.3c2.01,0,3.73,0,5.7,0c-0.96,1.68-1.83,3.2-2.84,4.96C85.86,86.53,85,85.04,84,83.3z"/>
			<path class="st196" d="M86.86,52.59c1.04,1.81,1.89,3.31,2.83,4.96c-1.94,0-3.66,0-5.64,0C84.97,55.93,85.83,54.4,86.86,52.59z"
				/>
			<path class="st197" d="M72.15,78.37c0.47-1.4,1.35-2.56,2.21-4.02c0.75,1.34,1.4,2.49,2.05,3.65c0.09,0.52-0.28,0.67-0.65,0.82
				C74.52,78.95,73.29,79.01,72.15,78.37z"/>
			<path class="st198" d="M80.42,58.44c1.29-0.68,1.72,0.44,1.77,1.05c0.07,0.79-0.81,1.17-1.58,1.1c-0.85-0.07-1.81-0.41-1.76-1.39
				C78.89,58.4,79.81,58.38,80.42,58.44z"/>
			<path class="st199" d="M96.53,69.53c-0.61,0.12-1.07-0.26-1.57-0.49c-0.68-0.31-1.32-0.74-1.52-1.47
				c-0.3-1.11,1.26-0.18,1.27-1.06C95.68,67.3,95.87,68.56,96.53,69.53z"/>
			<path class="st200" d="M75.57,78.5c0.32-0.1,0.66-0.16,0.83-0.5c0.35,0.43,0.75,0.85,0.55,1.49c-1.79,0.21-3.58,0.29-5.37-0.05
				c0.08-0.2,0.15-0.41,0.23-0.61C73.01,78.12,74.35,78.96,75.57,78.5z"/>
			<path class="st201" d="M81.81,79.43c3.37,0,6.75,0,10.12-0.01c-0.27,0.53-0.77,0.37-1.19,0.37c-2.58,0.01-5.16,0.01-7.74,0
				C82.58,79.79,82.08,79.95,81.81,79.43z"/>
			<path class="st202" d="M86.06,61.4c-1.06,0.42-2.12-0.01-3.18,0.02c0.3-0.93,0.77-1.67,1.88-1.69c0.19,0.58,0.22,1.29,1.08,1.33
				C85.92,61.18,85.99,61.29,86.06,61.4z"/>
			<path class="st199" d="M93.96,65.2c-1.06,0.97-1.43-1.11-2.54-0.17c0.34-1.12,1.42-0.82,1.58-1.59
				C93.22,64.09,93.97,64.44,93.96,65.2z"/>
			<path class="st203" d="M68.33,78.85c0.18-0.22,0.34-0.44,0.52-0.64c0.49-0.52,1.09-0.54,1.71-0.32c0.09,0.03,0.18,0.3,0.14,0.41
				c-0.26,0.72-0.81,0.65-1.4,0.48C68.99,78.7,68.72,79.21,68.33,78.85z"/>
			<path class="st204" d="M96.78,79.44c1.78-0.01,3.57-0.02,5.35-0.03C100.35,80.05,98.56,80.03,96.78,79.44z"/>
			<path class="st204" d="M71.59,79.44c1.79,0.02,3.58,0.03,5.37,0.05C75.16,79.96,73.37,80.07,71.59,79.44z"/>
			<path class="st205" d="M68.8,59.01c0.82-0.04,1.4-1.94,2.42-0.3C70.39,58.57,69.72,59.81,68.8,59.01z"/>
			<path class="st206" d="M85.85,61.07c-1.23,0.26-1.12-0.56-1.08-1.33C85.06,60.24,86.77,59.59,85.85,61.07z"/>
			<path class="st207" d="M75.11,56.66c-0.73,1.06-2.06,0.24-3.22,1.14C72.84,56.26,73.92,56.1,75.11,56.66z"/>
		</g>
		<g>
			<g>
				<path class="st0" d="M85.19,136.65c-36.66,0-66.49-29.83-66.49-66.49S48.53,3.67,85.19,3.67s66.49,29.83,66.49,66.49
					S121.85,136.65,85.19,136.65z M85.19,12.44c-31.83,0-57.72,25.89-57.72,57.72c0,31.83,25.89,57.72,57.72,57.72
					s57.72-25.89,57.72-57.72C142.91,38.33,117.02,12.44,85.19,12.44z"/>
			</g>
			<g>
				
					<rect x="25.76" y="68.33" transform="matrix(0.707 -0.7072 0.7072 0.707 -25.7047 83.3836)" class="st0" width="124.05" height="8.77"/>
			</g>
		</g>
	</g>
</g>
</svg>
